<svg id="Icons" height="512" viewBox="0 0 60 60" width="512" xmlns="http://www.w3.org/2000/svg"><path d="m55.986 36.779c-.456-14.215-12.626-25.779-27.129-25.779h-1.857a1 1 0 0 1 -1-1v-7.191a.787.787 0 0 0 -.477-.728.84.84 0 0 0 -.909.125l-20.331 17.194a.77.77 0 0 0 .006 1.2l20.311 17.185a.839.839 0 0 0 .917.132.787.787 0 0 0 .483-.728v-8.189a1 1 0 0 1 1-1h2.53a19.23 19.23 0 0 1 19.307 19.56 20.708 20.708 0 0 1 -2.637 10.15c-.034.06-.074.128.04.226a.179.179 0 0 0 .254.021 26.4 26.4 0 0 0 9.492-21.178z" style="fill: #9E5E78ff "/></svg>