<svg height="512" viewBox="0 0 64 64" width="512" xmlns="http://www.w3.org/2000/svg"><g id="Layer_43" data-name="Layer 43"><path d="m50 3.4h-36a10.62 10.62 0 0 0 -10.6 10.6v36a10.62 10.62 0 0 0 10.6 10.6h36a10.62 10.62 0 0 0 10.6-10.6v-36a10.62 10.62 0 0 0 -10.6-10.6zm-9.08 46.6h-28.49a.59.59 0 0 1 -.6-.6.6.6 0 0 1 .6-.6h2.5l3.37-10 6.9 6.9-9.2 3.1h24.92a.6.6 0 0 1 .6.6.6.6 0 0 1 -.6.6zm-14.61-4.89-7.42-7.42 21.56-21.56 7.42 7.42zm23-23-.57.57-7.44-7.4.57-.57a5.25 5.25 0 0 1 7.42 7.42z" fill="#ff6b6b"/></g></svg>