<?xml version="1.0" encoding="UTF-8"?>
<svg id="Calque_2" data-name="Calque 2" xmlns="http://www.w3.org/2000/svg" viewBox="0 0 50 50">
  <path d="m41.31,46.9c.89,0,1.62-.72,1.62-1.62v-17.3h4.26c1.55,0,2.81-1.26,2.81-2.81,0-.89-.41-1.68-1.05-2.19l-5.5-4.77v-7.93c0-.93-.75-1.68-1.68-1.68h-3.48c-.93,0-1.68.75-1.68,1.68v2L26.84,3.79c-1.06-.92-2.63-.92-3.68,0L.97,23.05c-.88.77-1.2,2.01-.79,3.11.41,1.1,1.46,1.83,2.63,1.83h4.25v17.3c0,.9.73,1.62,1.62,1.62h9.56v-12.58c0-1.78,1.44-3.22,3.22-3.22h7.08c1.78,0,3.22,1.44,3.22,3.22v12.58h9.55Z" style="fill: #4b4d4f;"/>
</svg>