<?xml version="1.0" encoding="UTF-8"?>
<svg id="Calque_3" data-name="Calque 3" xmlns="http://www.w3.org/2000/svg" viewBox="0 0 50 50">
  <path d="m38.77,32.03c1-4.53,1.81-10.32,1.23-14.36-.09-.61-.18-1.21-.28-1.78-.03-.46-.08-.93-.16-1.42-.31-1.75-.84-3.43-1.56-4.98-1.12-2.75-2.63-4.65-4.64-5.91-2.13-1.62-4.72-2.58-7.69-2.58-1.48,0-2.9.24-4.23.67-4.15.84-5.96,3.37-6.64,4.31-.62.86-1.13,1.88-1.57,3-.41.9-.72,1.85-.92,2.84-.61,2.29-1.05,4.84-1.51,7.47-.75,4.3-1.52,8.75-3.08,12.49-.05.12-.03.26.06.35.08.1.21.15.34.12,1.64-.3,2.88-.72,3.94-1.75-.8,2.07-3.79,3.61-3.83,3.62-.11.06-.18.17-.19.29,0,.13.05.24.15.31.06.04.62.4,1.52.85-2.89,6.25-2.83,12.58-2.82,12.96v.45h36.3l-.02-.47c-.34-8.28-2.39-13.41-4.36-16.49Zm-4.37.59c-.21.26-4.45,2.99-4.45,2.99l2.08,2.8-6.59,5.11v.02s0-.02,0-.02l-.02.02v-.02s-6.58-5.11-6.58-5.11l2.08-2.8s-4.23-2.72-4.45-2.99c-.38-.47,1.89-2.61,1.89-2.61l7.07,13.49,7.07-13.49s2.27,2.15,1.89,2.61Z" style="fill: #9E5E78ff"/>
  <polygon points="25.43 43.51 25.43 43.52 25.44 43.51 25.43 43.49 25.43 43.51" style="fill: #4b4d4f;"/>
</svg>