<?xml version="1.0" encoding="UTF-8"?>
<svg id="Calque_5" data-name="Calque 5" xmlns="http://www.w3.org/2000/svg" viewBox="0 0 50 50">
  <path d="m32.75,15.16c-.02-.12-.03-.23-.05-.35-.02-.09-.04-.17-.06-.25l-.07-.28c-.02-.08-.04-.15-.06-.22-.03-.11-.07-.21-.12-.32l-.09-.26s-.03-.1-.05-.14c-.06-.15-.14-.29-.21-.44l-.08-.17s-.03-.06-.04-.09c-.09-.17-.2-.34-.31-.51-.02-.03-.04-.06-.06-.1-.15-.22-.28-.4-.42-.57l-.05-.07c-.15-.18-.31-.36-.48-.54l-.05-.05c-1.45-1.46-3.41-2.29-5.51-2.31h-.09c-4.34,0-7.88,3.54-7.88,7.89s3.54,7.89,7.89,7.9h.1c2.09-.02,4.05-.85,5.52-2.34.2-.2.36-.38.5-.56.02-.03.04-.06.06-.08.13-.17.27-.34.39-.52.04-.07.06-.11.08-.14.11-.17.21-.34.31-.51.01-.03.03-.05.04-.08.02-.04.04-.08.06-.13l.03-.07c.07-.14.14-.27.19-.41.02-.05.04-.09.05-.14l.1-.26c.04-.11.08-.21.11-.32.02-.07.04-.15.06-.22l.07-.28c.02-.08.04-.16.06-.24.02-.12.04-.23.05-.35l.04-.27c0-.05.02-.11.02-.16.03-.27.04-.54.04-.81s-.01-.54-.04-.81c0-.05-.02-.11-.02-.16l-.04-.28Z" style="fill: #4b4d4f;"/>
  <path d="m38.76,26.74c.08-.13.16-.27.28-.44.01-.02.03-.04.04-.07.21-.39.53-.97.55-1,1.29-2.52,1.94-5.23,1.94-8.07,0-.3,0-.61-.02-.9,0-.13-.02-.26-.02-.39l-.02-.26c0-.08,0-.16-.02-.24,0-.11-.02-.21-.03-.32l-.02-.23c-.01-.11-.02-.22-.04-.33-.01-.09-.03-.17-.04-.26l-.03-.22c-.02-.12-.04-.25-.06-.37-.02-.1-.04-.2-.06-.29l-.05-.26c-.02-.09-.04-.18-.06-.27-.03-.13-.06-.26-.1-.39l-.06-.22c-.02-.07-.03-.13-.05-.2-.04-.14-.08-.28-.13-.42l-.05-.17c-.02-.07-.04-.14-.06-.2-.04-.14-.09-.27-.14-.41l-.06-.18c-.02-.06-.04-.13-.07-.18-.06-.15-.12-.3-.18-.44l-.07-.16s-.04-.09-.06-.14c-.09-.2-.18-.39-.28-.58l-.07-.14c-.1-.19-.2-.38-.33-.6l-.05-.09c-.11-.2-.23-.39-.37-.61,0,0-.03-.05-.04-.06-.13-.19-.26-.39-.4-.59,0,0-.03-.05-.04-.06-.14-.2-.29-.39-.44-.57,0,0-.03-.04-.04-.05-.16-.2-.32-.39-.5-.59-.17-.19-.35-.38-.53-.56,0,0,0,0,0,0-3.01-3.02-7.15-4.61-11.97-4.61C15.25.6,8.44,7.41,8.44,17.17c0,3.01.77,5.99,2.23,8.61l.25.46s.02.03.03.05l.42.64c.05.07.09.14.12.18l10.6,17.81h0l2.46,4.13c.13.22.37.36.63.36h0c.26,0,.5-.14.63-.37l2.39-4.12h0l10.33-17.79c.09-.14.17-.26.25-.39Zm-4.48-9.38c0,.09-.02.17-.04.26l-.03.22c-.02.15-.04.3-.07.45-.02.11-.05.22-.08.34l-.06.24c-.03.11-.05.21-.08.32-.04.14-.09.28-.15.41l-.08.22c-.03.08-.05.15-.09.23-.07.17-.15.33-.24.5l-.07.15c-.03.06-.05.11-.08.17-.11.21-.24.41-.37.61-.05.08-.07.12-.1.16-.14.22-.3.42-.46.62-.03.04-.05.06-.07.09-.17.21-.37.42-.57.64-1.77,1.79-4.1,2.77-6.59,2.8-.03,0-.06,0-.09,0-5.16,0-9.37-4.2-9.37-9.37s4.2-9.37,9.37-9.37h.1c2.48.03,4.81,1.01,6.55,2.78l.04.04c.21.21.39.42.56.62.02.03.04.05.06.08.17.21.33.42.47.64.02.04.05.08.07.12.15.24.28.44.39.65.03.06.06.11.08.17l.03.07c.11.22.2.39.27.57.03.08.06.15.09.23l.08.21c.05.14.1.27.15.41.03.1.06.21.08.32l.06.23c.03.11.06.23.09.35.03.14.05.29.07.44l.03.22c.01.09.03.17.04.26.03.31.05.64.05.95s-.02.64-.05.95Z" style="fill: #4b4d4f;"/>
</svg>