<?xml version="1.0" encoding="UTF-8"?>
<svg id="Calque_1" data-name="Calque 1" xmlns="http://www.w3.org/2000/svg" viewBox="0 0 50 50">
  <path d="m25,1C11.75,1,1,11.75,1,25s10.74,24,24,24,24-10.75,24-24S38.25,1,25,1Zm-2.96,2.88h5.81v17.61h-5.81V3.88Zm2.96,40.25c-10.54,0-19.12-8.58-19.12-19.12,0-8.39,5.44-15.53,12.97-18.1v5.2c-4.81,2.3-8.14,7.22-8.14,12.9,0,7.88,6.41,14.29,14.29,14.29s14.29-6.41,14.29-14.29c0-5.68-3.33-10.6-8.14-12.9v-5.2c7.54,2.56,12.97,9.71,12.97,18.1,0,10.54-8.58,19.12-19.12,19.12Z" style="fill: #4b4d4f;"/>
</svg>