<svg id="magicoon-Filled" height="512" viewBox="0 0 512 512" width="512" xmlns="http://www.w3.org/2000/svg"><g id="lock-Filled"><path id="lock-Filled-2" d="m362.667 213.12v-63.787a106.667 106.667 0 0 0 -213.334 0v63.787c-31.573 15.786-53.333 48-53.333 85.547v64a96.145 96.145 0 0 0 96 96h128a96.145 96.145 0 0 0 96-96v-64c0-37.547-21.76-69.761-53.333-85.547zm-85.334 128.213a21.333 21.333 0 1 1 -42.666 0v-21.333a21.333 21.333 0 0 1 42.666 0zm42.667-138.666h-128v-53.334a64 64 0 1 1 128 0z" data-name="lock-Filled"/></g></svg>