<?xml version="1.0" encoding="UTF-8"?>
<svg xmlns="http://www.w3.org/2000/svg" viewBox="0 0 300 300">
  <g style="isolation: isolate;">
    <g id="Calque_6" data-name="Calque 6">
      <g>
        <path d="m71.71,300h130.2c2.05-3.54,3.51-7.34,4.24-11.43,0,0,31-252.35-96.2-252.35,0,0-34.48,7.19-41.18,88.31,0,0,13.28,93.76,2.94,175.47Z" style="fill: #0c070b;"/>
        <g>
          <rect x="119.73" y="214.02" width="30.24" height="23.11" style="fill: #f5a674;"/>
          <path d="m138.96,234.03c-6.36-2.59-11.7-7.69-12.5-16.65-.11-1.23,0-2.34.25-3.36h-6.98v23.11h30.36v-2.9c-3.72,1.2-7.62,1.24-11.13-.2Z" style="fill: #d9d9d9; mix-blend-mode: multiply;"/>
        </g>
        <path d="m66.49,300h65.21l2.37-.7h.67v-.73l4.57,1.43h62.94l.31-.73,19.47.73h1.91c-1.64-24.43-1.27-36.01-15.38-44.69-18.28-11.67-54.33-18.96-54.33-18.96l-38.03-.19s-39.18,7.74-57.63,19.14c-14.25,8.48-9.4,19.53-11.41,43.98l18.95-.25.38.96Z" style="fill: #f5a674;"/>
        <path d="m202.89,300c.04-.45.05-.7.05-.7l-.38-.02s-7.64-9.22-10.62-20.94l-3.06-32.37c-7.39-2.12-9.44-3.05-16.31-4.76,0,0-36.1,20.49-76.61-.06-7.1,1.17-8.35,2.03-13.94,3.96l-2.63,34.74c-4.76,19.04-13.29,19.46-13.29,19.46h-.06s.08.26.22.7h136.63Z" style="fill: #fff;"/>
        <path d="m223.94,300c-.02-.27-.03-.52-.05-.79v-.68s-.04,0-.04,0c-1.54-23.4-1.6-34.49-15.29-43.21-17.06-10.87-43.85-16.52-43.85-16.52l-11.75,61.21h70.97Z" style="fill: #001c2b;"/>
        <path d="m116.14,300l-11.6-61.21s-26.19,4.91-45.96,16.52c-5.93,3.48-8.9,7.5-10.54,12.67l-.87,32.01h68.98Z" style="fill: #001c2b;"/>
        <polygon points="161.99 300 184.63 244.42 164.71 238.79 152.97 300 161.99 300" style="fill: #002636;"/>
        <polygon points="116.14 300 104.54 238.79 84.11 243.54 102.28 300 116.14 300" style="fill: #002636;"/>
        <polygon points="164.71 238.79 150.55 228.78 133.55 249.76 169.48 276.82 164.71 238.79" style="fill: #fff;"/>
        <polygon points="104.54 238.79 118.7 228.78 135.7 249.76 99.77 276.82 104.54 238.79" style="fill: #fff;"/>
        <g>
          <g>
            <g>
              <path d="m193.39,140.87c-1.71,12.13,3.11,22.84,10.74,23.89,7.62,1.06,15.19-7.9,16.88-20.03,1.68-12.13-3.12-22.83-10.76-23.89-7.62-1.06-15.18,7.91-16.86,20.03Z" style="fill: #f5a674;"/>
              <path d="m204.57,137.33s.07-.68.31-1.79c.22-1.11.72-2.69,1.56-4.37.85-1.63,2.27-3.51,4.19-3.63.47-.03.96.03,1.47.15.08.05.59.2.75.3.17.13.35.18.56.36.82.6,1.5,1.53,1.98,2.61.51,1.06.87,2.24,1.09,3.43.2,1.18.36,2.41.25,3.47-.16,1.21-.16,2.46-.37,3.52-.19,1.08-.37,2.09-.54,3.04-.25.95-.43,1.82-.6,2.61-.16.79-.42,1.44-.56,2-.33,1.11-.48,1.77-.48,1.77,0,0,.36-.57.92-1.58.26-.52.65-1.12.98-1.87.34-.75.73-1.58,1.11-2.53.36-.95.67-2.03,1.01-3.16.35-1.14.48-2.3.7-3.53.21-1.4.17-2.76-.06-4.14-.22-1.37-.59-2.76-1.21-4.09-.62-1.31-1.54-2.59-2.84-3.51-.3-.23-.72-.43-1.11-.62-.43-.17-.54-.18-1.06-.33-.75-.13-1.52-.18-2.29-.06-1.55.22-2.8,1.19-3.58,2.18-.81,1-1.27,2.08-1.62,3.06-.65,1.99-.71,3.71-.73,4.88.02,1.19.16,1.84.16,1.84Z" style="fill: #cb8864;"/>
              <path d="m204.57,137.33s-.77-1.28,4.19-1.65c0,0,5.61.76,2.69,6.83-.63,1.3-1.16,2.65-1.43,4.08-.38,2.02.67,4.75-.56,6.56-1.59,2.34-6.05,1.08-6.46-1.57-.32-2.02,2.05-5.53,3.14-6.99,0,0,3.31-4.44-1.57-7.26Z" style="fill: #cb8864;"/>
              <path d="m202.99,151.32s-.17.09-.37.33c-.23.24-.47.62-.67,1.13-.13.26-.16.54-.21.86-.04.32-.12.66-.04,1,.06.34.09.72.19,1.08.11.34.31.67.46,1,.21.31.36.68.62.91.24.26.53.47.78.69.49.47,1.05.73,1.57.86,1,.33,1.71.31,1.71.31,0,0-.32-.72-.86-1.45-.13-.2-.27-.39-.45-.57-.14-.21-.24-.46-.39-.66-.15-.21-.26-.44-.44-.63-.19-.19-.23-.46-.36-.67-.32-.41-.47-.88-.68-1.32-.12-.22-.18-.44-.26-.66-.05-.23-.19-.45-.22-.66-.25-.83-.38-1.58-.38-1.58Z" style="fill: #cb8864;"/>
            </g>
            <path d="m147.54,220.16s4.46-2.07,10.77-5.87c14.22-8.57,37.86-25.96,40.93-48.25,0,0,35.58-130.38-48.16-137.93,0,0-65.43-18.41-79.45,66.32,0,0-8.73,93.28,36.65,123.38,0,0,11.86,8.17,17.2,9.58,0,0,11.7-1.61,22.05-7.23Z" style="fill: #f5a674;"/>
            <path d="m151.09,28.11s-9.76-2.59-22.75-1.55c20.94,6.15,38.55,20.5,48.54,40.74,12.68,25.65,20.03,57.87,13.09,85.51-7.07,28.12-31.44,58.03-62.51,62.53-17.31,2.51-31.1-9.94-42.11-23.97,5.77,10.7,13.25,20.03,22.93,26.45,0,0,11.86,8.17,17.2,9.58,0,0,11.7-1.61,22.05-7.23,0,0,4.46-2.07,10.77-5.87,14.22-8.57,37.86-25.96,40.93-48.25,0,0,35.58-130.38-48.16-137.93Z" style="fill: #ececec; mix-blend-mode: multiply;"/>
            <g>
              <g>
                <path d="m105,127.73c-.13,4-3.47,7.13-7.47,7-4-.13-7.13-3.47-6.99-7.47.13-3.99,3.47-7.13,7.47-7,4,.13,7.13,3.48,6.99,7.47Z" style="fill: #30302f;"/>
                <path d="m98.34,122.88c.56.83-.34,2.4-2,3.52-1.66,1.11-3.45,1.34-4.01.51-.55-.83.34-2.4,2-3.52,1.66-1.11,3.46-1.34,4.01-.51Z" style="fill: #fff;"/>
              </g>
              <path d="m115.73,108.31s.75,5.23-1,8.04c0,0-22.66-10.61-33.71-3.96,0,0-6.5,3.68-6.93,7.1,0,0,.47-14.33,15.76-15.43,0,0,11.16-2.28,25.87,4.25Z" style="fill: #1c181d;"/>
              <g>
                <path d="m110.95,128.06c-.67-.04-1.31-.27-1.92-.55-.62-.26-1.2-.6-1.79-.92-1.15-.69-2.22-1.49-3.26-2.33l-.04-.04c-.54-.49-1.21-.96-1.86-1.36-.66-.41-1.35-.75-2.07-1.01-1.42-.53-2.93-.75-4.39-.51-2.96.4-5.5,2.53-7.58,4.92l.03-.04c-.26.34-.49.6-.77.85-.27.25-.56.48-.86.7-.6.42-1.27.76-1.98.95-.7.2-1.44.28-2.15.21-.36-.01-.7-.09-1.04-.17-.34-.08-.66-.23-.99-.34,1.36.22,2.74.15,3.9-.44.58-.28,1.11-.63,1.59-1.06.23-.22.46-.44.66-.69.2-.23.4-.51.54-.73h0s.03-.04.03-.04c.49-.69,1.01-1.37,1.58-2.01.6-.62,1.21-1.23,1.91-1.76,1.37-1.09,3.05-1.88,4.85-2.16,1.8-.27,3.67.02,5.29.73.81.35,1.58.8,2.29,1.29.72.51,1.35,1.07,1.97,1.75l-.04-.04,1.39,1.36c.47.44.96.86,1.44,1.3.5.41.99.84,1.53,1.2.54.36,1.08.73,1.71.94Z" style="fill: #231201;"/>
                <path d="m88.08,125.79s-2.33.71-4.76.66c-.6-.03-1.21-.09-1.75-.28-.56-.15-1.02-.47-1.33-.8-.18-.14-.24-.36-.34-.51-.11-.15-.12-.32-.16-.44-.06-.25-.09-.39-.09-.39,0,0,.05.14.13.38.05.12.07.28.19.41.12.13.19.33.37.45.32.28.77.53,1.3.62.52.13,1.1.12,1.67.1,1.15-.08,2.28-.36,3.11-.61.84-.25,1.36-.46,1.36-.46l.3.87Z" style="fill: #231201;"/>
                <path d="m89.34,124.48s-2.42.31-4.8-.14c-.59-.13-1.18-.29-1.68-.57-.52-.24-.92-.63-1.17-1.01-.15-.17-.17-.4-.25-.56-.08-.17-.07-.33-.08-.46-.02-.26-.03-.41-.03-.41,0,0,.02.15.07.4.03.12.02.28.12.44.09.15.13.36.29.51.27.33.67.65,1.18.83.49.21,1.06.31,1.63.38,1.15.11,2.31.02,3.17-.08.87-.11,1.42-.23,1.42-.23l.15.9Z" style="fill: #231201;"/>
              </g>
            </g>
            <g>
              <g>
                <path d="m147.36,129.11c-.14,4,3,7.34,6.99,7.47,4,.13,7.34-3,7.47-7,.13-4-3-7.34-6.99-7.47-4-.13-7.34,3.01-7.47,7Z" style="fill: #30302f;"/>
                <path d="m154.31,124.71c-.6.79.18,2.43,1.77,3.64,1.58,1.22,3.36,1.57,3.97.77.6-.79-.18-2.42-1.76-3.64-1.59-1.22-3.36-1.56-3.97-.77Z" style="fill: #fff;"/>
              </g>
              <path d="m137.91,109.03s-1.09,5.17.47,8.09c0,0,23.3-9.11,33.9-1.76,0,0,6.24,4.09,6.45,7.53,0,0,.46-14.33-14.72-16.41,0,0-11-3.01-26.1,2.55Z" style="fill: #1c181d;"/>
              <g>
                <path d="m141.4,129.05c.64-.17,1.2-.5,1.76-.82.56-.32,1.08-.71,1.6-1.09.51-.41,1.02-.8,1.52-1.2l1.48-1.26-.04.03c.67-.64,1.33-1.15,2.08-1.61.75-.45,1.54-.84,2.37-1.14,1.67-.6,3.55-.76,5.33-.38,1.78.4,3.4,1.3,4.7,2.48.66.58,1.24,1.22,1.79,1.88.52.68,1,1.39,1.44,2.11l.03.04h0c.12.23.31.52.49.77.19.26.39.5.61.73.44.46.96.84,1.52,1.16,1.12.66,2.49.82,3.87.69-.33.09-.66.21-1,.27-.35.06-.7.11-1.05.1-.71.02-1.44-.11-2.12-.35-.7-.23-1.34-.61-1.92-1.07-.28-.23-.56-.48-.81-.75-.26-.27-.48-.54-.71-.9l.03.05c-1.92-2.53-4.32-4.81-7.24-5.41-1.44-.34-2.96-.22-4.41.22-.73.22-1.44.51-2.13.88-.68.36-1.38.78-1.94,1.23l-.04.04c-1.09.77-2.22,1.49-3.4,2.11-.61.29-1.21.58-1.85.8-.62.23-1.28.43-1.95.42Z" style="fill: #231201;"/>
                <path d="m164.71,127.44s.51.25,1.33.55c.81.3,1.92.65,3.07.81.57.06,1.15.1,1.67.01.54-.05,1-.27,1.34-.53.19-.11.27-.3.4-.43.13-.13.16-.28.22-.4.1-.24.16-.37.16-.37,0,0-.04.14-.12.39-.04.12-.07.29-.18.43-.11.14-.19.36-.38.49-.33.31-.81.6-1.37.71-.56.15-1.17.17-1.77.16-2.42-.11-4.7-.97-4.7-.97l.35-.85Z" style="fill: #231201;"/>
                <path d="m163.39,126s.54.16,1.4.32c.85.16,2.01.33,3.16.29.57-.03,1.15-.09,1.65-.27.52-.14.94-.44,1.23-.75.17-.14.22-.34.32-.49.11-.15.11-.31.15-.43.06-.25.09-.39.09-.39,0,0-.02.15-.05.4-.02.13-.02.29-.11.45-.09.16-.13.38-.29.54-.27.36-.7.73-1.24.93-.52.24-1.12.36-1.72.46-2.41.29-4.81-.18-4.81-.18l.2-.89Z" style="fill: #231201;"/>
              </g>
            </g>
            <path d="m198.44,114.28s.33,22.43,1.29,27.66c0,0,2.38-22.89,14.03-19.56,4.62,1.32,7.16,12.31,7.16,12.31,19.2-37.67,1.71-92.01,3.65-86.89,0,0-12.06-40.92-64.32-46.13,0,0-51.13-4.18-74.96,24.64-36.08,43.62-13.56,103.95-12.94,113.54,0,0-7.3-58.89,19.36-71.51,0,0,17.56-6.03,18.92-13.86,0,0,8,43.11,87.8,59.8Z" style="fill: #1c181d;"/>
            <g>
              <path d="m104.25,178.91l40.83,1.33s-4.04,16.21-22.86,15.6c0,0-13.4-.44-17.97-16.93Z" style="fill: #fff;"/>
              <path d="m104.25,178.71c3.43-.54,6.84-.79,10.25-.92,1.7-.07,3.41-.09,5.11-.11,1.7.03,3.4,0,5.11.08,1.7.06,3.4.19,5.1.39,1.7.19,3.39.45,5.09.68,3.39.49,6.79.77,10.19.79h.82s-.21.8-.21.8c-.65,2.39-1.61,4.58-2.81,6.74-.63,1.06-1.31,2.1-2.1,3.06-.37.51-.81.96-1.25,1.41-.44.45-.88.91-1.39,1.29-.49.4-.98.81-1.51,1.17l-1.63.99c-1.11.61-2.3,1.12-3.49,1.56-1.22.35-2.43.81-3.69.95l-1.88.31c-.63.08-1.25.07-1.88.1l-1.89.05c-.78-.04-1.45-.13-2.09-.27-1.29-.29-2.53-.69-3.72-1.22-1.2-.49-2.33-1.14-3.38-1.88-.54-.35-1.04-.76-1.53-1.17-.51-.39-.97-.84-1.4-1.31-.91-.89-1.67-1.92-2.39-2.94-.65-1.08-1.31-2.12-1.77-3.28-.55-1.1-.86-2.3-1.2-3.46-.31-1.17-.48-2.37-.66-3.54l-.03-.22.23-.04Zm.36.48c.5.94.92,1.89,1.44,2.78.63.97,1.15,1.98,1.86,2.86.63.93,1.37,1.76,2.1,2.58.79.76,1.53,1.56,2.41,2.18.42.34.84.66,1.3.94.44.3.88.6,1.36.83.47.25.92.51,1.42.7.47.23.95.44,1.45.61.97.37,2,.63,3,.8.51.11,1,.17,1.39.2l1.63-.03c.54-.02,1.09,0,1.63-.03l1.6-.17c1.09-.05,2.1-.38,3.16-.59,1.02-.29,2.04-.63,3.01-1.07l1.45-.7c.47-.26.91-.57,1.38-.84.48-.26.9-.59,1.34-.92.44-.32.9-.63,1.29-1.01.84-.71,1.62-1.51,2.35-2.36.72-.86,1.38-1.79,1.94-2.77.56-.97,1.05-2.04,1.36-3.08l.6.8c-3.4-.2-6.81-.15-10.22.12-1.71.12-3.42.27-5.12.34-1.7.09-3.41.11-5.11.06-1.7-.03-3.4-.17-5.1-.26-1.7-.13-3.4-.26-5.09-.44-3.27-.34-6.54-.8-9.79-1.52Z" style="fill: #db7274;"/>
            </g>
            <g>
              <path d="m120.63,121s.14.88.22,2.44c.06.78.05,1.73.06,2.82.04,1.09,0,2.32-.12,3.66-.09,1.34-.15,2.8-.44,4.32-.27,1.52-.4,3.15-.83,4.78-.42,1.63-.82,3.33-1.29,5.04-.57,1.68-1.24,3.36-1.86,5.05-.57,1.72-1.52,3.27-2.33,4.85-.42.78-.84,1.56-1.25,2.33l-.59,1.08c-.14.25-.27.62-.37.93-.38,1.34-.14,2.6.73,3.53.17.26.45.45.7.64.24.21.51.39.81.54.29.16.58.31.86.47.31.11.61.23.9.34.58.25,1.19.38,1.76.53.57.15,1.11.32,1.64.39,1.05.17,1.97.37,2.74.42,1.54.16,2.43.28,2.43.28,0,0-.88.09-2.45.19-.78.08-1.73.01-2.83,0-.55.01-1.13-.07-1.76-.14-.62-.07-1.27-.15-1.94-.35-1.35-.28-2.85-.87-4.17-2.06-.33-.31-.64-.64-.87-1.07-.28-.39-.44-.85-.6-1.32-.26-.95-.24-1.97-.02-2.92.13-.48.25-.92.5-1.42l.58-1.18c.37-.75.75-1.51,1.13-2.28.75-1.54,1.64-3.04,2.17-4.7.62-1.62,1.29-3.23,1.87-4.84.46-1.65.98-3.26,1.45-4.83.47-1.57.75-3.13,1.12-4.59.38-1.46.59-2.87.83-4.17.24-1.3.46-2.49.59-3.56.15-1.07.31-2,.36-2.77.17-1.54.24-2.43.24-2.43Z" style="fill: #d29065;"/>
              <path d="m128.46,157.25s.75.16,1.56.87c.4.35.84.83,1.15,1.49.16.32.28.71.36,1.1.02.42.07.85-.03,1.3-.07.45-.3.84-.5,1.23-.23.36-.55.64-.83.89-.61.45-1.23.68-1.76.76-.52.14-.98.06-1.29.06-.31-.03-.49-.07-.49-.07,0,0,.12-.15.33-.38.2-.24.52-.49.83-.84.15-.17.31-.35.49-.51.14-.19.26-.39.43-.55.22-.39.44-.7.46-1.08.08-.17.05-.38.08-.58-.05-.22.01-.44-.06-.68-.05-.47-.19-.96-.29-1.41-.24-.88-.41-1.62-.41-1.62Z" style="fill: #d29065;"/>
            </g>
            <g style="mix-blend-mode: multiply; opacity: .2;">
              <path d="m184.46,150.53c-.25,7.58-9.55,13.43-20.76,13.07-11.23-.37-20.11-6.81-19.87-14.39.24-7.58,9.53-13.43,20.76-13.06,11.21.37,20.11,6.81,19.86,14.38Z" style="fill: #fff;"/>
              <path d="m183.72,150.51c-.24,7.31-9.2,12.95-20.02,12.6-10.83-.35-19.39-6.57-19.16-13.88.23-7.31,9.19-12.95,20.02-12.59,10.81.36,19.39,6.56,19.15,13.87Z" style="fill: #fef7f8;"/>
              <path d="m182.98,150.49c-.23,7.04-8.86,12.48-19.28,12.13-10.43-.34-18.68-6.33-18.45-13.36.22-7.04,8.85-12.47,19.28-12.13,10.41.34,18.67,6.32,18.45,13.36Z" style="fill: #fdeff1;"/>
              <path d="m182.24,150.46c-.22,6.77-8.52,12-18.54,11.67-10.03-.33-17.96-6.08-17.74-12.85.22-6.77,8.51-11.99,18.54-11.66,10.01.33,17.96,6.08,17.74,12.85Z" style="fill: #fce7ea;"/>
              <path d="m181.5,150.44c-.21,6.5-8.18,11.52-17.8,11.2-9.63-.31-17.24-5.84-17.03-12.34.21-6.5,8.18-11.51,17.8-11.2,9.61.32,17.24,5.84,17.03,12.33Z" style="fill: #fbdfe3;"/>
              <path d="m180.76,150.41c-.2,6.23-7.84,11.04-17.06,10.74-9.22-.3-16.53-5.6-16.33-11.82.2-6.23,7.84-11.03,17.06-10.73,9.22.3,16.53,5.59,16.32,11.82Z" style="fill: #fad7dc;"/>
              <path d="m180.03,150.39c-.19,5.96-7.5,10.56-16.32,10.27-8.82-.29-15.81-5.35-15.62-11.31.19-5.96,7.5-10.55,16.32-10.27,8.82.29,15.81,5.35,15.62,11.31Z" style="fill: #f9cfd5;"/>
              <path d="m179.29,150.37c-.19,5.69-7.16,10.08-15.58,9.8-8.42-.27-15.09-5.11-14.91-10.8.18-5.69,7.16-10.08,15.58-9.8,8.42.28,15.09,5.11,14.91,10.79Z" style="fill: #f8c7ce;"/>
              <path d="m178.55,150.34c-.18,5.42-6.82,9.6-14.84,9.34-8.02-.26-14.38-4.87-14.2-10.28.17-5.42,6.82-9.6,14.84-9.34,8.02.27,14.38,4.87,14.2,10.28Z" style="fill: #f7bfc7;"/>
              <path d="m177.81,150.32c-.17,5.15-6.48,9.12-14.1,8.87-7.62-.25-13.66-4.62-13.49-9.77.16-5.15,6.48-9.12,14.1-8.87,7.62.25,13.66,4.62,13.49,9.77Z" style="fill: #f5b6bf;"/>
              <path d="m177.07,150.29c-.16,4.88-6.14,8.64-13.36,8.41-7.22-.24-12.94-4.38-12.79-9.26.16-4.88,6.14-8.64,13.36-8.41,7.22.24,12.94,4.38,12.79,9.26Z" style="fill: #f4aeb8;"/>
              <path d="m176.33,150.27c-.15,4.61-5.8,8.17-12.62,7.94-6.82-.22-12.23-4.13-12.08-8.74.15-4.61,5.8-8.16,12.62-7.94,6.82.23,12.23,4.14,12.08,8.74Z" style="fill: #f3a6b1;"/>
              <path d="m175.59,150.24c-.14,4.34-5.46,7.69-11.88,7.47-6.42-.21-11.51-3.89-11.37-8.23.14-4.34,5.46-7.68,11.88-7.48,6.42.21,11.51,3.89,11.37,8.23Z" style="fill: #f29eaa;"/>
              <path d="m174.86,150.22c-.14,4.07-5.12,7.21-11.14,7.01-6.02-.2-10.79-3.65-10.66-7.72.13-4.07,5.13-7.2,11.14-7.01,6.02.2,10.79,3.65,10.66,7.72Z" style="fill: #f196a3;"/>
              <path d="m174.12,150.2c-.13,3.8-4.78,6.73-10.4,6.54-5.62-.18-10.08-3.4-9.95-7.2.12-3.8,4.79-6.72,10.4-6.54,5.63.19,10.08,3.41,9.96,7.21Z" style="fill: #f08e9c;"/>
              <path d="m173.38,150.17c-.12,3.54-4.44,6.25-9.66,6.08-5.22-.17-9.36-3.16-9.25-6.69.11-3.53,4.45-6.25,9.66-6.08,5.23.17,9.36,3.17,9.25,6.69Z" style="fill: #ef8695;"/>
              <path d="m172.64,150.15c-.11,3.27-4.1,5.77-8.92,5.61-4.82-.16-8.64-2.92-8.54-6.18.1-3.26,4.11-5.77,8.92-5.61,4.83.16,8.64,2.92,8.54,6.18Z" style="fill: #ee7e8e;"/>
            </g>
            <g style="mix-blend-mode: multiply; opacity: .2;">
              <path d="m112.26,148.51c-.24,7.58-9.55,13.43-20.76,13.06-11.23-.36-20.11-6.81-19.86-14.39.25-7.58,9.53-13.43,20.76-13.06,11.21.36,20.11,6.8,19.86,14.38Z" style="fill: #fff;"/>
              <path d="m111.52,148.49c-.23,7.31-9.2,12.95-20.02,12.6-10.83-.35-19.4-6.57-19.15-13.87.24-7.31,9.19-12.95,20.02-12.59,10.81.35,19.39,6.56,19.15,13.87Z" style="fill: #fef7f8;"/>
              <path d="m110.78,148.46c-.23,7.04-8.86,12.47-19.28,12.13-10.43-.34-18.68-6.32-18.45-13.36.23-7.04,8.85-12.47,19.28-12.13,10.41.33,18.68,6.31,18.45,13.35Z" style="fill: #fdeff1;"/>
              <path d="m110.04,148.44c-.22,6.77-8.52,12-18.54,11.67-10.03-.32-17.96-6.08-17.74-12.85.22-6.77,8.51-11.99,18.54-11.66,10.01.32,17.96,6.07,17.74,12.84Z" style="fill: #fce7ea;"/>
              <path d="m109.31,148.41c-.21,6.5-8.18,11.52-17.8,11.2-9.63-.31-17.25-5.84-17.03-12.34.21-6.5,8.17-11.51,17.8-11.19,9.61.31,17.24,5.83,17.03,12.33Z" style="fill: #fbdfe3;"/>
              <path d="m108.57,148.39c-.2,6.23-7.84,11.04-17.06,10.73-9.23-.3-16.53-5.59-16.32-11.82.2-6.23,7.83-11.03,17.06-10.73,9.21.3,16.53,5.59,16.32,11.82Z" style="fill: #fad7dc;"/>
              <path d="m107.83,148.37c-.19,5.96-7.5,10.56-16.32,10.27-8.82-.29-15.81-5.35-15.61-11.31.19-5.96,7.49-10.55,16.32-10.26,8.81.28,15.81,5.34,15.61,11.3Z" style="fill: #f9cfd5;"/>
              <path d="m107.09,148.34c-.18,5.69-7.16,10.08-15.58,9.8-8.42-.27-15.09-5.11-14.91-10.8.18-5.69,7.16-10.08,15.58-9.8,8.41.27,15.09,5.1,14.9,10.79Z" style="fill: #f8c7ce;"/>
              <path d="m106.35,148.32c-.17,5.42-6.82,9.6-14.84,9.34-8.02-.26-14.38-4.86-14.2-10.28.18-5.42,6.82-9.6,14.84-9.33,8.02.26,14.38,4.86,14.2,10.28Z" style="fill: #f7bfc7;"/>
              <path d="m105.61,148.29c-.17,5.15-6.48,9.12-14.1,8.87-7.62-.25-13.66-4.62-13.49-9.77.17-5.15,6.48-9.12,14.1-8.87,7.62.25,13.66,4.62,13.49,9.77Z" style="fill: #f5b6bf;"/>
              <path d="m104.87,148.27c-.16,4.88-6.14,8.64-13.36,8.4-7.22-.23-12.94-4.38-12.78-9.26.16-4.88,6.14-8.64,13.36-8.4,7.22.23,12.94,4.37,12.78,9.25Z" style="fill: #f4aeb8;"/>
              <path d="m104.14,148.25c-.15,4.61-5.8,8.16-12.62,7.94-6.82-.22-12.23-4.13-12.07-8.74.15-4.61,5.8-8.16,12.62-7.93,6.82.22,12.23,4.13,12.07,8.74Z" style="fill: #f3a6b1;"/>
              <path d="m103.4,148.22c-.14,4.34-5.46,7.68-11.88,7.47-6.42-.21-11.51-3.89-11.37-8.23.14-4.34,5.46-7.68,11.88-7.47,6.42.21,11.51,3.89,11.36,8.23Z" style="fill: #f29eaa;"/>
              <path d="m102.66,148.2c-.13,4.07-5.12,7.2-11.14,7-6.02-.2-10.79-3.65-10.66-7.72.13-4.07,5.12-7.2,11.14-7,6.02.19,10.79,3.65,10.66,7.72Z" style="fill: #f196a3;"/>
              <path d="m101.92,148.17c-.12,3.8-4.78,6.72-10.4,6.54-5.62-.18-10.08-3.4-9.95-7.21.12-3.8,4.78-6.72,10.4-6.54,5.62.18,10.08,3.41,9.95,7.2Z" style="fill: #f08e9c;"/>
              <path d="m101.18,148.15c-.12,3.53-4.44,6.24-9.66,6.07-5.21-.17-9.36-3.16-9.24-6.69.12-3.53,4.44-6.25,9.67-6.07,5.22.17,9.36,3.16,9.24,6.69Z" style="fill: #ef8695;"/>
              <path d="m100.44,148.13c-.11,3.26-4.09,5.76-8.92,5.61-4.81-.16-8.64-2.92-8.53-6.18.11-3.26,4.11-5.77,8.93-5.61,4.82.16,8.64,2.92,8.53,6.18Z" style="fill: #ee7e8e;"/>
            </g>
            <g>
              <path d="m210.12,162.47c-.1,2.87-2.49,5.11-5.37,5.02-2.87-.09-5.12-2.49-5.02-5.36s2.49-5.12,5.36-5.02c2.87.09,5.12,2.49,5.03,5.36Z" style="fill: #ffd032;"/>
              <path d="m210.12,162.47c-.1,2.87-2.49,5.11-5.37,5.02-2.87-.09-5.12-2.49-5.02-5.36s2.49-5.12,5.36-5.02c2.87.09,5.12,2.49,5.03,5.36Z" style="fill: #ffd032;"/>
              <path d="m209.68,160.24c.11.37.18.76.16,1.17-.06,2.04-1.78,3.65-3.82,3.58-2.04-.06-3.65-1.78-3.58-3.82.06-2.04,1.77-3.64,3.82-3.58.5.02.97.14,1.41.33-.75-.47-1.63-.78-2.58-.81-2.86-.09-5.26,2.16-5.36,5.02s2.15,5.27,5.02,5.36c2.87.09,5.27-2.15,5.37-5.02.02-.8-.15-1.55-.44-2.23Z" style="fill: #ffd032; mix-blend-mode: multiply;"/>
              <path d="m208.94,160.84c-.05,1.28-1.12,2.29-2.4,2.25-1.28-.04-2.29-1.12-2.25-2.4.04-1.28,1.11-2.29,2.4-2.25,1.28.04,2.29,1.12,2.25,2.4Z" style="fill: #fff; mix-blend-mode: soft-light;"/>
              <path d="m207.88,160.41c0,.48-.41.86-.9.84-.48-.01-.85-.42-.84-.9.01-.48.42-.86.9-.85.48.02.86.42.84.9Z" style="fill: #fff; mix-blend-mode: soft-light;"/>
            </g>
          </g>
          <path d="m110.63,54.48s.47-.69,1.35-1.85c.89-1.15,2.11-2.84,3.67-4.78,1.54-1.96,3.39-4.2,5.4-6.57,2-2.38,4.2-4.87,6.39-7.35,4.43-4.93,9.01-9.74,12.56-13.24,1.76-1.76,3.31-3.16,4.35-4.17,1.06-1,1.7-1.54,1.7-1.54,0,0-.48.69-1.35,1.85-.89,1.15-2.11,2.84-3.67,4.78-3.09,3.91-7.37,8.98-11.8,13.92-2.23,2.45-4.46,4.91-6.61,7.16-2.14,2.26-4.17,4.33-5.95,6.08-1.76,1.76-3.3,3.16-4.35,4.17-1.06,1-1.7,1.54-1.7,1.54Z" style="fill: #0c070b;"/>
        </g>
        <path d="m189.77,300h49.63c6.89-54.35,21.04-201.13-18.07-259.74,5.47,27.4-3.81,85.65-3.81,85.65,11.57,20.95-7.4,37.18-7.4,37.18-.9,3.98-4.25,4.21-4.25,4.21-4.65.4-5.95-3.61-5.95-3.61,0,0,3.41,75.32-10.15,136.31Z" style="fill: #1c181d;"/>
      </g>
    </g>
  </g>
</svg>