<?xml version="1.0" encoding="UTF-8"?>
<svg id="Calque_5" data-name="Calque 5" xmlns="http://www.w3.org/2000/svg" viewBox="0 0 300 300">
  <polyline points="93.31 162.2 93.31 244.98 213 244.98 213 162.2" style="fill: #130000;"/>
  <path d="m76.66,62.1s-36.02,204.07,38.04,197.3c0,0-14.96-48.09,5.2-67.67,0,0-10.93-7.91-21.72-21.46,0,0-6.97-9.63-10.05-19.65,0,0-8.28-85.21-11.47-88.53Z" style="fill: #420e10;"/>
  <g>
    <path d="m204.17,116.97s8.13-11.48,14.82-6.63c0,0,4.05,4.12,1.33,14.45-.49,1.86-.89,3.76-1.24,5.66-.26,1.46-.51,2.99-.58,4.49-.09,1.54.37,3.19-.05,4.71-.86,3.16-2.39,6.55-5.16,8.44-1.19.81-2.54,1.41-4,1.52-.61.04-5.34-.47-5.33-1.15l.22-31.5Z" style="fill: #f5bd90;"/>
    <path d="m204.14,120.45s6.55-9.26,11.95-5.34c0,0,3.27,3.32,1.08,11.64-.39,1.5-.73,3.04-1,4.57-.21,1.18-.42,2.41-.48,3.61-.07,1.25.3,2.58-.03,3.81-.69,2.55-1.94,5.27-4.17,6.8-.96.65-2.05,1.14-3.22,1.23-.5.03-4.32-.37-4.31-.93l.18-25.4Z" style="fill: #eab58a;"/>
  </g>
  <g>
    <path d="m92.09,118.05s-8.12-11.49-14.82-6.62c0,0-4.07,4.11-1.33,14.43.49,1.87.88,3.76,1.24,5.67.27,1.46.51,2.99.58,4.48.08,1.54-.37,3.19.04,4.72.86,3.16,2.39,6.54,5.17,8.44,1.2.81,2.54,1.41,4,1.53.61.04,5.34-.47,5.34-1.15l-.23-31.5Z" style="fill: #f5bd90;"/>
    <path d="m92.11,121.53s-6.55-9.26-11.95-5.34c0,0-3.28,3.32-1.08,11.64.4,1.51.71,3.03.99,4.57.22,1.18.42,2.41.48,3.61.06,1.26-.3,2.58.03,3.81.7,2.55,1.93,5.28,4.16,6.81.96.66,2.05,1.14,3.22,1.23.5.04,4.32-.37,4.32-.92l-.19-25.4Z" style="fill: #eab58a;"/>
  </g>
  <path d="m124.04,191.73s5.13,30.95-6.43,43.15h65.05s-13.28-24.66-5.9-45.86l-52.72,2.71Z" style="fill: #f5bd90;"/>
  <path d="m124.82,214.86c2.37,2.15,5.03,3.71,7.88,5,6.68,2.98,13.73,4.41,20.77,2.36,6.72-1.94,13.3-6.56,17.14-13.39,1.8-3.18,2.91-6.78,4.27-10.23.35-1.98,1.18-7.59,1.88-9.59l-52.72,2.71s1.51,13.08.78,23.13Z" style="fill: #e3b086;"/>
  <path d="m210.42,102.56c0-45.27-28.37-81.96-63.36-81.96s-63.37,36.69-63.37,81.96c0,21.88-1.21,40.35,9.62,59.64,9.62,17.14,21.26,25.83,38.32,38.25,0,0,16.52,12.73,33.86,1.93,15.64-13.89,34.61-27.15,41.84-48.39,5.43-16,3.09-34.65,3.09-51.43Z" style="fill: #f5bd90;"/>
  <g>
    <g>
      <path d="m163.41,116.08s1.52-.4,2.86.32c17.98,10.07,27.85-4.74,27.85-4.74-15.03-15.89-27.86,1.07-27.86,1.07l-2.85,3.34" style="fill: #fff;"/>
      <path d="m187.01,113.57c-.64,4.17-4.54,7.03-8.71,6.38-4.16-.65-7.02-4.54-6.38-8.7.64-4.17,4.54-7.03,8.7-6.39,4.17.64,7.04,4.54,6.39,8.71Z" style="fill: #00b0c2;"/>
      <path d="m185.71,113.38c-.53,3.45-3.76,5.81-7.21,5.27-3.45-.53-5.81-3.76-5.29-7.21.54-3.45,3.77-5.81,7.21-5.28,3.45.54,5.82,3.77,5.29,7.22Z" style="fill: #71c4c6;"/>
      <g>
        <path d="m179.58,112.36l5.22-3.3c-.11-.18-.24-.36-.37-.52l-4.85,3.8h0Z" style="fill: #00b0c2;"/>
        <path d="m179.59,112.38l5.77-2.18c-.08-.2-.16-.4-.26-.59l-5.52,2.76h0Z" style="fill: #00b0c2;"/>
        <path d="m179.57,112.34l4.44-4.28c-.14-.15-.3-.3-.46-.44l-3.99,4.71s.01,0,.01,0Z" style="fill: #00b0c2;"/>
        <path d="m179.59,112.42l6.17.3c.01-.22.01-.44,0-.65l-6.17.33h0Z" style="fill: #00b0c2;"/>
        <path d="m179.59,112.4l6.1-.97c-.03-.21-.07-.42-.13-.62l-5.97,1.57v.02Z" style="fill: #00b0c2;"/>
        <path d="m179.58,112.46l5.54,2.73c.1-.18.18-.39.26-.59l-5.79-2.15s0,0-.01,0Z" style="fill: #00b0c2;"/>
        <path d="m179.57,112.48l4.86,3.8c.13-.16.25-.34.37-.53l-5.23-3.29s0,0,0,.02Z" style="fill: #00b0c2;"/>
        <path d="m179.53,112.3l2.4-5.67c-.2-.08-.39-.15-.59-.22l-1.82,5.88s0,.01,0,.01Z" style="fill: #00b0c2;"/>
        <path d="m179.55,112.32l3.49-5.07c-.17-.12-.36-.24-.53-.33l-2.97,5.39s0,.01,0,.01Z" style="fill: #00b0c2;"/>
        <path d="m179.36,112.34l-4.46-4.28c-.15.16-.29.32-.42.49l4.87,3.8h0Z" style="fill: #00b0c2;"/>
        <path d="m179.34,112.4l-6.11-.93c-.03.2-.05.42-.06.62l6.17.31s0,0,0,0Z" style="fill: #00b0c2;"/>
        <path d="m179.38,112.33l-3.51-5.07c-.18.11-.35.25-.51.39l4,4.69s0,0,0,0Z" style="fill: #00b0c2;"/>
        <path d="m179.35,112.35l-5.23-3.27c-.12.18-.22.38-.31.56l5.54,2.73v-.02Z" style="fill: #00b0c2;"/>
        <path d="m179.45,112.29l.02-6.16c-.21,0-.43.02-.64.04l.62,6.12h0Z" style="fill: #00b0c2;"/>
        <path d="m179.43,112.29l-1.24-6.04c-.21.05-.41.1-.62.16l1.84,5.88s0,0,.02,0Z" style="fill: #00b0c2;"/>
        <path d="m179.4,112.3l-2.42-5.66c-.2.08-.38.17-.57.27l2.98,5.4s.01,0,.01,0Z" style="fill: #00b0c2;"/>
        <path d="m179.35,112.37l-5.8-2.14c-.07.2-.13.4-.18.62l5.98,1.54h0Z" style="fill: #00b0c2;"/>
        <path d="m179.35,112.42l-6.17.32c0,.21.03.43.06.64l6.1-.95s0,0,0,0Z" style="fill: #00b0c2;"/>
        <path d="m179.42,112.53l-1.83,5.88c.2.06.41.12.62.16l1.23-6.04h0Z" style="fill: #00b0c2;"/>
        <path d="m179.38,112.49l-4.01,4.7c.16.13.33.27.51.39l3.5-5.08h0Z" style="fill: #00b0c2;"/>
        <path d="m179.4,112.51l-2.98,5.4c.18.1.37.19.57.28l2.42-5.67s0,0-.01,0Z" style="fill: #00b0c2;"/>
        <path d="m179.34,112.43l-5.97,1.57c.05.2.12.41.19.61l5.79-2.17s0,0,0,0Z" style="fill: #00b0c2;"/>
        <path d="m179.36,112.49l-4.86,3.79c.12.17.26.33.41.49l4.45-4.27h0Z" style="fill: #00b0c2;"/>
        <path d="m179.35,112.45l-5.53,2.74c.09.19.2.38.31.56l5.22-3.29h0Z" style="fill: #00b0c2;"/>
        <path d="m179.57,112.49s-.01,0-.01,0l4,4.71c.16-.14.31-.29.46-.44l-4.44-4.28Z" style="fill: #00b0c2;"/>
        <path d="m179.49,112.29h.01l1.22-6.03c-.2-.04-.4-.07-.62-.09l-.61,6.12h0Z" style="fill: #00b0c2;"/>
        <path d="m179.48,112.54h-.02l-.63,6.13c.21.03.43.03.62.03l.03-6.16Z" style="fill: #00b0c2;"/>
        <path d="m179.49,112.53l.61,6.14c.21-.03.42-.06.64-.09l-1.24-6.05h-.01Z" style="fill: #00b0c2;"/>
        <path d="m179.53,112.52s0,0,0,0l1.82,5.89c.2-.06.4-.14.6-.22l-2.41-5.67Z" style="fill: #00b0c2;"/>
        <path d="m179.55,112.51s0,0-.01,0l2.98,5.4c.18-.1.36-.2.53-.32l-3.5-5.09Z" style="fill: #00b0c2;"/>
        <path d="m185.7,113.34l-6.11-.9h0l5.97,1.55c.06-.2.1-.41.13-.62v-.04Z" style="fill: #00b0c2;"/>
      </g>
      <path d="m182.34,112.76c-.23,1.52-1.66,2.57-3.18,2.34-1.53-.24-2.57-1.66-2.34-3.19.24-1.52,1.67-2.57,3.19-2.34,1.53.24,2.57,1.67,2.33,3.19Z" style="fill: #1d1d1b;"/>
      <path d="m183.36,111.58c-.11.71-.77,1.2-1.48,1.08-.7-.1-1.19-.76-1.08-1.47.11-.71.77-1.2,1.48-1.09.71.12,1.19.78,1.09,1.48Z" style="fill: #fff;"/>
      <path d="m163.41,116.08s9.05-10.3,17.56-10.29c0,0,6.88-.1,13.1,5.95,0,0,3.62-1.7,4.45-4.74,0,0-1.79,1.69-6.23.02,0,0-8.75-6.49-17.1-3.01,0,0-6.98,3.01-11.77,12.07Z" style="fill: #422918;"/>
      <path d="m194.07,111.75s-8.38,13.54-22.67,6.95c0,0,13.69,5.69,21.73-7.82l.94.87Z" style="fill: #1d1d1b;"/>
    </g>
    <path d="m166.12,109.69s.69-2.09,2.81-4.63c1.07-1.24,2.46-2.64,4.29-3.7.88-.56,1.91-.99,2.94-1.39,1.05-.38,2.15-.66,3.29-.81,2.26-.21,4.55-.01,6.55.57,2.02.47,3.8,1.44,5.12,2.45.65.5,1.32.87,1.74,1.41.45.49.83.93,1.15,1.27.61.71.96,1.12.96,1.12,0,0-.45-.29-1.24-.8-.38-.26-.84-.57-1.37-.94-.5-.4-1.22-.6-1.88-.99-.67-.39-1.43-.71-2.24-.97-.77-.34-1.78-.45-2.68-.67-1.85-.46-3.88-.51-5.83-.25-3.97.35-7.55,2.57-9.89,4.58-2.38,2.01-3.7,3.75-3.7,3.75Z" style="fill: #ce8d61;"/>
    <path d="m189.81,107.27s5.9-.29,6.91-5.01c0,0-2.63,5.13-7.37,3.95l.46,1.05Z" style="fill: #1d1d1b;"/>
    <path d="m192.18,108.42s5.89-.29,6.9-5.02c0,0-2.63,5.13-7.37,3.95l.47,1.07Z" style="fill: #1d1d1b;"/>
    <path d="m188.65,106.91s5.35-2.49,4.49-7.24c0,0-.49,5.74-5.34,6.44l.84.8Z" style="fill: #1d1d1b;"/>
    <path d="m186.91,105.87s4.6-2.15,3.87-6.23c0,0-.42,4.93-4.59,5.54l.72.69Z" style="fill: #1d1d1b;"/>
  </g>
  <g>
    <g>
      <path d="m133.07,116.08s-1.51-.4-2.86.32c-17.99,10.07-27.85-4.74-27.85-4.74,15.04-15.89,27.86,1.07,27.86,1.07l2.85,3.34" style="fill: #fff;"/>
      <path d="m109.48,113.57c.64,4.17,4.54,7.03,8.7,6.38,4.17-.65,7.02-4.54,6.39-8.7-.65-4.17-4.54-7.03-8.71-6.39-4.17.64-7.02,4.54-6.38,8.71Z" style="fill: #00b0c2;"/>
      <path d="m110.77,113.38c.54,3.45,3.76,5.81,7.21,5.27,3.45-.53,5.81-3.76,5.28-7.21-.53-3.45-3.75-5.81-7.2-5.28-3.45.54-5.81,3.77-5.28,7.22Z" style="fill: #71c4c6;"/>
      <g>
        <path d="m116.9,112.36l-5.21-3.3c.11-.18.24-.36.37-.52l4.85,3.8s0,0,0,.01Z" style="fill: #00b0c2;"/>
        <path d="m116.9,112.38l-5.78-2.18c.07-.2.16-.4.26-.59l5.52,2.76s0,0,0,0Z" style="fill: #00b0c2;"/>
        <path d="m116.91,112.34l-4.44-4.28c.15-.15.3-.3.46-.44l3.99,4.71s-.01,0-.01,0Z" style="fill: #00b0c2;"/>
        <path d="m116.89,112.42l-6.17.3c0-.22,0-.44,0-.65l6.16.33s0,0,0,.01Z" style="fill: #00b0c2;"/>
        <path d="m116.89,112.4l-6.11-.97c.04-.21.08-.42.14-.62l5.97,1.57s0,.02,0,.02Z" style="fill: #00b0c2;"/>
        <path d="m116.9,112.46l-5.54,2.73c-.1-.18-.18-.39-.26-.59l5.79-2.15s0,0,0,0Z" style="fill: #00b0c2;"/>
        <path d="m116.91,112.48l-4.86,3.8c-.13-.16-.25-.34-.37-.53l5.22-3.29s0,0,0,.02Z" style="fill: #00b0c2;"/>
        <path d="m116.95,112.3l-2.4-5.67c.2-.08.4-.15.6-.22l1.82,5.88s-.01.01-.02.01Z" style="fill: #00b0c2;"/>
        <path d="m116.93,112.32l-3.48-5.07c.17-.12.36-.24.54-.33l2.96,5.39s0,.01-.02.01Z" style="fill: #00b0c2;"/>
        <path d="m117.12,112.34l4.45-4.28c.15.16.29.32.42.49l-4.86,3.8s-.01-.01-.01-.01Z" style="fill: #00b0c2;"/>
        <path d="m117.15,112.4l6.11-.93c.03.2.04.42.05.62l-6.16.31h0Z" style="fill: #00b0c2;"/>
        <path d="m117.11,112.33l3.5-5.07c.18.11.35.25.51.39l-4,4.69s0,0-.01,0Z" style="fill: #00b0c2;"/>
        <path d="m117.14,112.35l5.23-3.27c.11.18.22.38.31.56l-5.54,2.73v-.02Z" style="fill: #00b0c2;"/>
        <path d="m117.03,112.29v-6.16c.21,0,.42.02.63.04l-.62,6.12h0Z" style="fill: #00b0c2;"/>
        <path d="m117.05,112.29l1.24-6.04c.21.05.42.1.62.16l-1.84,5.88s0,0-.01,0Z" style="fill: #00b0c2;"/>
        <path d="m117.08,112.3l2.42-5.66c.19.08.38.17.57.27l-2.98,5.4s0,0-.01,0Z" style="fill: #00b0c2;"/>
        <path d="m117.14,112.37l5.8-2.14c.06.2.13.4.18.62l-5.97,1.54h-.01Z" style="fill: #00b0c2;"/>
        <path d="m117.15,112.42l6.16.32c0,.21-.02.43-.06.64l-6.1-.95h0Z" style="fill: #00b0c2;"/>
        <path d="m117.06,112.53l1.84,5.88c-.2.06-.41.12-.62.16l-1.23-6.04h0Z" style="fill: #00b0c2;"/>
        <path d="m117.11,112.49l4.01,4.7c-.16.13-.33.27-.51.39l-3.51-5.08h0Z" style="fill: #00b0c2;"/>
        <path d="m117.09,112.51l2.98,5.4c-.19.1-.38.19-.57.28l-2.42-5.67s0,0,0,0Z" style="fill: #00b0c2;"/>
        <path d="m117.15,112.43l5.97,1.57c-.06.2-.12.41-.19.61l-5.78-2.17h0Z" style="fill: #00b0c2;"/>
        <path d="m117.12,112.49l4.86,3.79c-.12.17-.26.33-.41.49l-4.45-4.27h0Z" style="fill: #00b0c2;"/>
        <path d="m117.14,112.45l5.53,2.74c-.09.19-.2.38-.31.56l-5.22-3.29h0Z" style="fill: #00b0c2;"/>
        <path d="m116.91,112.49s0,0,.01,0l-3.99,4.71c-.16-.14-.32-.29-.46-.44l4.44-4.28Z" style="fill: #00b0c2;"/>
        <path d="m117,112.29h-.02l-1.21-6.03c.21-.04.41-.07.62-.09l.61,6.12h0Z" style="fill: #00b0c2;"/>
        <path d="m117.01,112.54h.02l.63,6.13c-.21.03-.42.03-.63.03l-.02-6.16Z" style="fill: #00b0c2;"/>
        <path d="m117,112.53l-.61,6.14c-.21-.03-.42-.06-.63-.09l1.22-6.05h.02Z" style="fill: #00b0c2;"/>
        <path d="m116.96,112.52s.01,0,.01,0l-1.83,5.89c-.21-.06-.41-.14-.6-.22l2.42-5.67Z" style="fill: #00b0c2;"/>
        <path d="m116.93,112.51s.02,0,.02,0l-2.98,5.4c-.18-.1-.37-.2-.55-.32l3.5-5.09Z" style="fill: #00b0c2;"/>
        <path d="m110.78,113.34l6.12-.9h0l-5.98,1.55c-.05-.2-.09-.41-.13-.62v-.04Z" style="fill: #00b0c2;"/>
      </g>
      <path d="m114.15,112.76c.23,1.52,1.66,2.57,3.19,2.34,1.52-.24,2.57-1.66,2.34-3.19-.24-1.52-1.67-2.57-3.19-2.34-1.53.24-2.57,1.67-2.33,3.19Z" style="fill: #1d1d1b;"/>
      <path d="m113.12,111.58c.11.71.78,1.2,1.48,1.08.7-.1,1.19-.76,1.09-1.47-.11-.71-.77-1.2-1.48-1.09-.71.12-1.2.78-1.09,1.48Z" style="fill: #fff;"/>
      <path d="m133.07,116.08s-9.05-10.3-17.56-10.29c0,0-6.88-.1-13.1,5.95,0,0-3.62-1.7-4.45-4.74,0,0,1.79,1.69,6.24.02,0,0,8.75-6.49,17.09-3.01,0,0,7,3.01,11.78,12.07Z" style="fill: #422918;"/>
      <path d="m102.41,111.75s8.39,13.54,22.68,6.95c0,0-13.7,5.69-21.73-7.82l-.95.87Z" style="fill: #1d1d1b;"/>
    </g>
    <path d="m130.36,109.69s-1.31-1.73-3.69-3.75c-2.34-2-5.92-4.23-9.9-4.58-1.95-.26-3.98-.21-5.83.25-.88.23-1.89.34-2.67.67-.81.26-1.57.58-2.24.97-.67.4-1.39.6-1.88.99-.54.36-.99.68-1.37.94-.79.51-1.25.8-1.25.8,0,0,.35-.41.96-1.12.32-.34.71-.78,1.16-1.27.42-.55,1.08-.92,1.74-1.42,1.31-1,3.11-1.97,5.11-2.44,2-.59,4.3-.78,6.56-.57,1.13.15,2.23.43,3.28.81,1.04.4,2.06.82,2.94,1.39,1.83,1.06,3.21,2.46,4.29,3.7,2.12,2.54,2.81,4.63,2.81,4.63Z" style="fill: #ce8d61;"/>
    <path d="m106.68,107.27s-5.89-.29-6.91-5.01c0,0,2.62,5.13,7.38,3.95l-.47,1.05Z" style="fill: #1d1d1b;"/>
    <path d="m104.31,108.42s-5.89-.29-6.91-5.02c0,0,2.63,5.13,7.38,3.95l-.48,1.07Z" style="fill: #1d1d1b;"/>
    <path d="m107.84,106.91s-5.35-2.49-4.5-7.24c0,0,.5,5.74,5.34,6.44l-.84.8Z" style="fill: #1d1d1b;"/>
    <path d="m109.57,105.87s-4.59-2.15-3.87-6.23c0,0,.43,4.93,4.6,5.54l-.73.69Z" style="fill: #1d1d1b;"/>
  </g>
  <g>
    <path d="m138.51,101.58c-.23-.7,3.27,20.54-.65,44.31,0,0-5.58,11.3,4.57,11.3,0,0-4.34-.92-2.28-8.3,0,0,6.21-22.85-1.64-47.31Z" style="fill: #ecaa7e;"/>
    <path d="m154.55,146.11s6.23,6.69,0,10.15c0,0,5.08,0,5.3-5.08,0,0-.45-5.54-5.3-5.08Z" style="fill: #ecaa7e;"/>
    <path d="m143.58,156.27s.7-.34,1.92-.11c.28.1.63.18.95.43.33.17.66.61.83.89.16.25.31.32.46.47.16.11.27.1.38.12.14-.08.29,0,.5-.21.2-.13.45-.22.64-.47.21-.21.44-.39.66-.56.2-.2.66-.53.93-.59.62-.25,1.12-.13,1.45-.08.34.05.5.11.5.11,0,0-.17.11-.45.24-.3.09-.65.35-.97.62-.18.17-.2.19-.36.49-.17.28-.35.6-.57.88-.42.58-1.12,1.25-2.29,1.4-.6-.03-1.17-.24-1.55-.59-.36-.3-.64-.78-.78-1.11-.16-.28-.12-.41-.28-.62-.1-.2-.31-.33-.47-.48-.76-.55-1.5-.83-1.5-.83Z" style="fill: #ecaa7e;"/>
  </g>
  <path d="m134.78,90.59s-22.22-7.38-30.64-7.38c0,0-7.25-.39-11.53,8.74,0,0,5.67-5.97,13.63-3.83l28.54,7.33s2.33-2.33,0-4.86Z" style="fill: #9d571e;"/>
  <path d="m160.22,90.59s22.22-7.38,30.63-7.38c0,0,7.25-.39,11.54,8.74,0,0-5.67-5.97-13.63-3.83l-28.54,7.33s-2.33-2.33,0-4.86Z" style="fill: #9d571e;"/>
  <g>
    <g>
      <path d="m157.98,168.8c-5.91-2.88-8.78,0-8.78,0,0,0-2.88-2.88-8.78,0,0,0-8.61,3.88-12.44,3.63,2.92.34,17.86,2.03,21.22,1.36,3.35.67,17.12-1.05,20.05-1.39-3.83.25-11.27-3.61-11.27-3.61Z" style="fill: #ed706f;"/>
      <path d="m127.98,172.43s9.33,10.08,21.22,9.85c0,0,12.84-.45,20.05-9.88l-39.83.02h-1.43Z" style="fill: #ed706f;"/>
    </g>
    <path d="m131.28,173.45c3.02.21,6.03.37,9.04.32,1.5-.06,3.01-.05,4.48-.24.73-.11,1.48-.16,2.2-.33l2.12-.56.16-.04.11.02c2.69.59,5.47.91,8.24,1.17,1.38.06,2.77.16,4.16.1,1.4.07,2.77-.16,4.18-.28-1.38.27-2.75.63-4.16.71-1.4.17-2.81.13-4.22.15-2.82-.08-5.61-.43-8.39-.96l.26-.02-2.27.58c-.76.17-1.52.2-2.28.3-.76.11-1.53.12-2.29.14-.76,0-1.53.06-2.29,0-3.05-.09-6.06-.49-9.03-1.06Z" style="fill: #ea5765;"/>
    <path d="m162.07,175.73c-4.62.83-9.42,1.49-14.12,1.28-2.52-.11-5.03-.38-7.54-.67-1.9-.22-3.79-.38-5.6-1.06-1.82-.69-3.85-1.39-5.41-2.56-.18-.13-.36-.24-.54-.37-.26.02-.53.06-.75.04,0,0,9.32,10.08,21.21,9.86,0,0,12.2-.47,19.48-9.21-.09.01-.18.03-.27.06-1.76,1.51-4.17,2.21-6.46,2.62Z" style="fill: #fff; opacity: .2;"/>
    <path d="m168.07,172.34c-7.3,8.57-19.32,9.02-19.32,9.02-9.7.19-17.68-6.47-20.31-8.94-.1,0-.23.02-.33.01,0,0,9.32,10.08,21.21,9.85,0,0,12.86-.45,20.05-9.88-.39.02-.84-.02-1.3-.07Z" style="fill: #ea5765;"/>
    <path d="m128.77,173.06c4.06-.14,11.78-3.59,11.78-3.59,5.9-2.9,8.78,0,8.78,0,0,0,2.88-2.9,8.78,0,0,0,6.76,3.48,10.71,3.57.18-.22.39-.42.57-.65-3.84.25-11.27-3.61-11.27-3.61-5.9-2.89-8.78,0-8.78,0,0,0-2.87-2.89-8.78,0,0,0-8.6,3.88-12.43,3.63,0,0,.25.26.66.66Z" style="fill: #ea5765;"/>
    <path d="m163.87,174.53s-7.81,4.06-18.07,2.36c0,0-1.34.94,0,1.57,0,0,10.34,1.6,18.07-3.93Z" style="fill: #fff;"/>
  </g>
  <path d="m275.17,300c.73-37.91-25.51-51.2-25.51-51.2l-72.97-19.7-26.45-1.86h0s-.1,0-.1,0h-.11s0,0,0,0l-26.45,1.86-72.96,19.7s-26.26,13.29-25.52,51.2h250.06Z" style="fill: #f5bd90;"/>
  <path d="m111.68,54.07s-22.22,14.32-24.54,60.3c0,0-4.61-7.96-10.53-2.03,0,0-16.12-86.01,40.73-95.45l-5.66,37.18Z" style="fill: #420e10;"/>
  <path d="m76.66,61.81s0-.03-.01-.03c0,0-.05.29-.14.79-.35,1.85-.64,3.7-.89,5.54-4.13,26.59-18.15,130.1,6.48,172.67,1.14-.32,2.28-.68,3.41-1.02-23.83-43.19-10-145.27-5.9-171.65.25-1.84.56-3.69.89-5.54.09-.5.14-.79.14-.79,0,0,0,.02.02.03,3.8-19.58,13.61-38.67,36.53-44.35l.14-.87c-25.9,4.29-36.63,24.5-40.66,45.22Z" style="fill: #260200;"/>
  <g>
    <path d="m91.76,148.9c0,2.55-2.07,4.61-4.62,4.61s-4.61-2.06-4.61-4.61,2.06-4.62,4.61-4.62,4.62,2.07,4.62,4.62Z" style="fill: #fff;"/>
    <path d="m87.14,144.28c-.46,0-.88.09-1.3.21,1.28.73,2.26,1.93,2.52,3.44.3,1.73-.39,3.68-2.32,4.05-.86.16-1.67.1-2.42-.11.84,1,2.1,1.65,3.52,1.65,2.55,0,4.62-2.06,4.62-4.61s-2.07-4.62-4.62-4.62Z" style="fill: #d9d9d9;"/>
  </g>
  <path d="m227.07,300c-2.62-6.21-7.25-23.47,1.33-57.39l-14.75-3.98s-6.62,36.3-35.89,61.37h49.31Z" style="fill: #333332;"/>
  <path d="m73.72,300h49.3c-29.26-25.07-35.88-61.37-35.88-61.37l-14.75,3.98c8.57,33.92,3.94,51.18,1.32,57.39Z" style="fill: #333332;"/>
  <path d="m199.08,97.8l3.25,3.95.06.42s5.03,109.77,1.45,197.83h36.81c3.24-92.33.87-235.52-41.09-278.99-.16-.22-.32-.45-.49-.68,0,0-2.84-3.44-8.23-7.36-10.67-7.78-31.3-17.42-59.57-5.78,0,0-24.01,10.02-24.13,31.45-.22,40.21,91.93,59.16,91.93,59.16Z" style="fill: #420e10;"/>
  <path d="m199.26,98.12l3.25,3.95.05.42s5.03,109.51,1.47,197.51h5.22c4.01-88.87-1.23-203.01-1.23-203.01l-.06-.42-3.25-3.95s-92.15-18.95-91.93-59.16c.04-7.65,3.14-13.82,7.09-18.62-6.17,5.18-12.5,13.14-12.55,24.13-.23,40.2,91.93,59.16,91.93,59.16Z" style="fill: #260200;"/>
  <path d="m190.42,18.02c.16.22.33.44.49.67,42.31,43.83,44.36,189.07,41.01,281.31h8.74c3.24-92.33.87-235.52-41.09-278.99-.16-.22-.32-.45-.49-.68,0,0-2.84-3.44-8.23-7.36-5.42-3.95-13.42-8.37-23.69-10.25,6.19,2.19,11.25,5.17,15.03,7.93,5.38,3.92,8.23,7.37,8.23,7.37Z" style="fill: #260200;"/>
</svg>