<?xml version="1.0" encoding="UTF-8"?>
<svg xmlns="http://www.w3.org/2000/svg" viewBox="0 0 300 300">
  <g style="isolation: isolate;">
    <g id="Calque_7" data-name="Calque 7">
      <g>
        <rect x="125.84" y="154.38" width="86.05" height="85.93" style="fill: #100100;"/>
        <rect x="123.9" y="214.57" width="36.38" height="30.78" style="fill: #f9c8a9;"/>
        <path d="m152.6,224.81c2.75,0,5.3.3,7.67.83v-11.08h-36.38v30c3.93-11.01,13.49-19.76,28.7-19.76Z" style="fill: #d9d9d9; mix-blend-mode: multiply;"/>
        <path d="m157.68,240.69h-31.18s-62.33-3.34-74.32,61.33h179.82c-11.99-64.67-74.32-61.33-74.32-61.33Z" style="fill: #f9c8a9;"/>
        <path d="m216.88,126.42c0,52.93-30.96,95.84-74.79,95.84s-74.79-42.91-74.79-95.84S98.26,30.57,142.09,30.57s74.79,42.91,74.79,95.85Z" style="fill: #f9c8a9;"/>
        <g>
          <path d="m207.38,149.24c-1.57,8.34,1.41,15.9,6.66,16.89,5.25.99,10.77-4.97,12.34-13.31,1.57-8.34-1.41-15.9-6.66-16.88-5.24-.99-10.76,4.97-12.33,13.31Z" style="fill: #f9c8a9;"/>
          <path d="m216.83,144.05s.35.17.97.39c.29.11.74.19,1,.49.29.29.62.41.85.83.28.32.48.72.62,1.2.23.39.15,1.02.3,1.52-.02,1.14,0,2.39-.35,3.66-.22,1.27-.66,2.51-1.13,3.61-.47,1.12-1.07,2.01-1.66,2.69-.32.24-.63.56-.96.7-.32.05-.68.3-.96.19-.57-.07-1-.11-1-.11,0,0,.23.26.82.71.28.27.74.25,1.29.39.53.07,1.17-.09,1.79-.32,1.19-.56,2.34-1.59,3.15-2.87.87-1.26,1.46-2.77,1.8-4.34.16-.79.25-1.6.25-2.41.09-.79-.17-1.63-.26-2.39-.29-.78-.45-1.54-.98-2.16-.23-.31-.45-.62-.69-.89-.31-.21-.6-.41-.89-.6-.5-.44-1.23-.46-1.73-.56-.53-.13-.88,0-1.22.04-.65.12-1.02.23-1.02.23Z" style="fill: #d9d9d9; mix-blend-mode: multiply;"/>
        </g>
        <g>
          <path d="m76.79,149.24c1.57,8.34-1.41,15.9-6.66,16.89-5.25.99-10.77-4.97-12.34-13.31-1.57-8.34,1.41-15.9,6.66-16.88,5.24-.99,10.76,4.97,12.33,13.31Z" style="fill: #f9c8a9;"/>
          <path d="m67.35,144.05s-.35.17-.97.39c-.29.11-.74.19-1,.49-.29.29-.62.41-.85.83-.28.32-.48.72-.62,1.2-.23.39-.15,1.02-.31,1.52.02,1.14,0,2.39.35,3.66.22,1.27.66,2.51,1.13,3.61.48,1.12,1.07,2.01,1.66,2.69.32.24.63.56.96.7.32.05.68.3.96.19.57-.07,1-.11,1-.11,0,0-.23.26-.82.71-.28.27-.74.25-1.29.39-.53.07-1.17-.09-1.79-.32-1.19-.56-2.34-1.59-3.15-2.87-.87-1.26-1.46-2.77-1.81-4.34-.16-.79-.25-1.6-.25-2.41-.09-.79.17-1.63.26-2.39.29-.78.45-1.54.98-2.16.23-.31.44-.62.68-.89.31-.21.6-.41.89-.6.5-.44,1.23-.46,1.73-.56.53-.13.89,0,1.22.04.65.12,1.02.23,1.02.23Z" style="fill: #d9d9d9; mix-blend-mode: multiply;"/>
        </g>
        <path d="m86.42,110.2s9.93-18.19,28.68-4.9" style="fill: none; stroke: #422918; stroke-linecap: round; stroke-miterlimit: 10; stroke-width: 2.23px;"/>
        <path d="m195.21,110.2s-9.93-18.19-28.68-4.9" style="fill: none; stroke: #422918; stroke-linecap: round; stroke-miterlimit: 10; stroke-width: 2.23px;"/>
        <path d="m150.29,159.79s.42.32,1.03,1.02c.6.7,1.41,1.77,1.99,3.35.28.79.53,1.72.53,2.8,0,1.06-.26,2.31-.96,3.42-.68,1.1-1.73,2-2.83,2.54-1.09.58-2.24.91-3.35,1.11-1.12.19-2.21.27-3.27.25-1.06,0-2.08-.11-3.05-.23-1.94-.29-3.69-.74-5.15-1.27-1.46-.49-2.64-1.03-3.44-1.45-.81-.41-1.26-.69-1.26-.69,0,0,.53-.08,1.43-.13.9-.04,2.17-.11,3.66-.11,1.46-.02,3.17-.04,4.99-.07.89-.04,1.8-.06,2.71-.12.9-.07,1.8-.14,2.64-.31,1.71-.28,3.15-.84,3.9-1.68.8-.81,1.1-2.23,1.11-3.59-.03-1.36-.22-2.59-.38-3.45-.18-.88-.28-1.39-.28-1.39Z" style="fill: #d2ab91;"/>
        <g>
          <path d="m124.11,184.62c3.72,7.82,10.37,13.06,17.98,13.06s14.25-5.23,17.98-13.06h-35.96Z" style="fill: #fff;"/>
          <path d="m124.11,184.62l1.63,2.45c.57.79,1.22,1.51,1.81,2.25.61.73,1.35,1.36,2.01,2.04.67.67,1.5,1.16,2.22,1.76.74.57,1.61.95,2.4,1.44.82.44,1.72.68,2.55,1.05.87.27,1.78.41,2.66.63.9.08,1.81.09,2.71.15.74-.11,1.9-.19,2.79-.33.83-.27,1.65-.45,2.47-.76.8-.41,1.65-.71,2.42-1.19.74-.52,1.55-.93,2.24-1.52.67-.62,1.42-1.14,2.02-1.83.59-.7,1.25-1.33,1.78-2.08.51-.77,1.09-1.48,1.58-2.27l1.35-2.43,1.35,2.13c-3,0-5.99-.06-8.99-.13-3-.05-5.99-.16-8.99-.26-3-.11-5.99-.26-8.99-.43-3-.18-5.99-.38-8.99-.67Zm0,0c3-.28,5.99-.49,8.99-.67s5.99-.32,8.99-.43c3-.1,5.99-.22,8.99-.26,3-.07,5.99-.12,8.99-.13h.07c.8,0,1.45.65,1.45,1.45,0,.25-.06.48-.17.69l-1.46,2.72c-.53.88-1.15,1.71-1.74,2.56-.61.83-1.37,1.56-2.06,2.33-.7.77-1.57,1.38-2.34,2.07-.8.67-1.75,1.15-2.62,1.73-.91.53-1.93.86-2.89,1.28-1.02.34-2.12.54-3.18.8-1.04.1-1.85.14-3.04.21-1.05-.13-2.1-.22-3.13-.39-1-.31-2.02-.55-2.98-.93-.93-.46-1.89-.85-2.75-1.42-.82-.61-1.72-1.12-2.46-1.82-.73-.71-1.52-1.35-2.15-2.14-.61-.8-1.29-1.53-1.83-2.38-.51-.87-1.06-1.7-1.51-2.57l-1.18-2.7Z" style="fill: #dc998c;"/>
        </g>
        <g>
          <path d="m110.69,128.22c0,4.93-3.45,8.92-7.69,8.92s-7.7-3.99-7.7-8.92,3.45-8.92,7.7-8.92,7.69,4,7.69,8.92Z" style="fill: #422918;"/>
          <g>
            <path d="m100.65,124.63c0,1.98-1.6,3.59-3.59,3.59s-3.59-1.61-3.59-3.59,1.61-3.59,3.59-3.59,3.59,1.6,3.59,3.59Z" style="fill: #fff;"/>
            <path d="m100.47,129.84c0,.94-.76,1.7-1.7,1.7s-1.7-.76-1.7-1.7.76-1.7,1.7-1.7,1.7.76,1.7,1.7Z" style="fill: #fff;"/>
          </g>
        </g>
        <g>
          <path d="m171.25,128.22c0,4.93,3.45,8.92,7.69,8.92s7.7-3.99,7.7-8.92-3.44-8.92-7.7-8.92-7.69,4-7.69,8.92Z" style="fill: #422918;"/>
          <g>
            <path d="m181.29,124.63c0,1.98,1.6,3.59,3.58,3.59s3.59-1.61,3.59-3.59-1.6-3.59-3.59-3.59-3.58,1.6-3.58,3.59Z" style="fill: #fff;"/>
            <path d="m181.47,129.84c0,.94.76,1.7,1.7,1.7s1.7-.76,1.7-1.7-.76-1.7-1.7-1.7-1.7.76-1.7,1.7Z" style="fill: #fff;"/>
          </g>
        </g>
        <path d="m211.9,261.58c-9.74-9.73-21.17-15-31.04-17.78-38.77,47.98-77.87.09-77.87.09-8.72,2.49-18.65,6.89-27.52,14.62v43.51h136.42v-40.44Z" style="fill: #e64645;"/>
        <path d="m110.69,61.53s64.4-22.55,87.84,17.85c0,0,0-92.01-87.84-17.85Z" style="fill: #1d0a00;"/>
        <path d="m59.69,139.42S40.87,41.53,98.77,24.38c0,0,11.92-4.13,16.33.05l-2.91,7.91-1.51,29.19s-32.33,9.09-37.45,62.35c0,0-1.35,22.19-3.21,32.8,0,0-1.39-17.37-4.92-18.92,0,0-2.31-.9-5.42,1.66Z" style="fill: #341c10;"/>
        <path d="m216.97,35.19c44.07,70.13,24.21,173.84,24.21,173.84-7.11,44.67-67.75,31.29-67.75,31.29,43.73-10.14,24.29-132.35,24.29-132.35l19.24-72.77Z" style="fill: #341c10;"/>
        <g>
          <g>
            <path d="m73.25,164.49c0,2.8-2.27,5.08-5.07,5.08s-5.08-2.27-5.08-5.08,2.27-5.08,5.08-5.08,5.07,2.27,5.07,5.08Z" style="fill: #e3e3e2;"/>
            <path d="m72.8,166.18c-.75.75-1.78,1.18-2.84,1.18s-2.09-.43-2.84-1.18c-.75-.75-1.18-1.78-1.18-2.84v-.05c0-1.06.43-2.09,1.18-2.84.47-.47,1.04-.81,1.67-1-.21-.02-.41-.04-.62-.04-2.81,0-5.08,2.27-5.08,5.08s2.27,5.08,5.08,5.08c2.31,0,4.25-1.54,4.87-3.64-.07.09-.15.18-.24.26Z" style="fill: #ececec; mix-blend-mode: multiply;"/>
          </g>
          <path d="m71.89,163.01c0,1.03-.83,1.86-1.86,1.86s-1.86-.83-1.86-1.86.83-1.86,1.86-1.86,1.86.83,1.86,1.86Z" style="fill: #fff;"/>
        </g>
        <path d="m110.69,61.53s72.48-59.53,79.23,1.11c2.19,1.87,8.61,101.85,26.47,75.12,0,0,17.96-28.57,10.41-71.07,0,0-4.9-58.24-57.12-64.54,0,0-44.22-3.67-58.98,25.71,0,0-7.81,14.87,0,33.67Z" style="fill: #341c10;"/>
      </g>
    </g>
  </g>
</svg>