<?xml version="1.0" encoding="UTF-8"?>
<svg id="Calque_1" data-name="Calque 1" xmlns="http://www.w3.org/2000/svg" viewBox="0 0 300 300">
  <polyline points="93.19 162.75 93.19 245.72 213.14 245.72 213.14 162.75" style="fill: #844f18;"/>
  <path d="m76.5,62.44s-36.09,204.5,38.13,197.72c0,0-15.01-48.19,5.21-67.82,0,0-10.95-7.93-21.76-21.5,0,0-6.99-9.65-10.08-19.7,0,0-8.3-85.39-11.5-88.71Z" style="fill: #f18a32;"/>
  <g>
    <path d="m204.29,117.42s8.14-11.5,14.85-6.64c0,0,4.06,4.13,1.33,14.48-.5,1.86-.9,3.77-1.24,5.67-.26,1.46-.51,2.99-.58,4.49-.09,1.54.37,3.21-.05,4.73-.87,3.17-2.4,6.56-5.18,8.45-1.19.82-2.55,1.43-4.01,1.54-.61.04-5.35-.46-5.35-1.15l.23-31.57Z" style="fill: #f5bd90;"/>
    <path d="m204.26,120.92s6.57-9.28,11.97-5.36c0,0,3.28,3.33,1.09,11.66-.4,1.51-.73,3.04-1,4.58-.22,1.18-.41,2.42-.48,3.63-.07,1.25.3,2.58-.04,3.81-.69,2.55-1.93,5.28-4.17,6.81-.97.67-2.05,1.15-3.23,1.24-.5.03-4.32-.37-4.32-.93l.18-25.45Z" style="fill: #eab58a;"/>
  </g>
  <g>
    <path d="m91.96,118.51s-8.14-11.51-14.85-6.64c0,0-4.07,4.12-1.33,14.47.49,1.86.89,3.76,1.24,5.67.26,1.47.51,3,.59,4.5.09,1.55-.37,3.21.05,4.73.87,3.17,2.4,6.56,5.18,8.46,1.2.82,2.55,1.42,4.01,1.53.61.04,5.35-.47,5.35-1.15l-.23-31.57Z" style="fill: #f5bd90;"/>
    <path d="m91.99,122s-6.57-9.27-11.98-5.35c0,0-3.28,3.33-1.08,11.67.39,1.51.72,3.04,1,4.58.22,1.18.42,2.42.48,3.62.07,1.25-.3,2.59.03,3.82.7,2.56,1.94,5.28,4.18,6.81.96.66,2.06,1.15,3.23,1.23.5.04,4.33-.36,4.32-.92l-.18-25.46Z" style="fill: #eab58a;"/>
  </g>
  <path d="m123.98,192.34s5.15,31.02-6.43,43.25h65.18s-13.31-24.71-5.92-45.97l-52.83,2.72Z" style="fill: #f5bd90;"/>
  <path d="m124.77,215.53c2.37,2.15,5.03,3.73,7.9,5.01,6.69,2.99,13.76,4.43,20.82,2.37,6.73-1.95,13.32-6.58,17.17-13.41,1.8-3.19,2.91-6.79,4.27-10.25.36-1.98,1.19-7.61,1.88-9.61l-52.83,2.72s1.52,13.12.79,23.18Z" style="fill: #e3b086;"/>
  <path d="m210.55,102.99c0-45.36-28.43-82.13-63.5-82.13s-63.5,36.77-63.5,82.13c0,21.93-1.22,40.43,9.63,59.76,9.64,17.17,21.31,25.89,38.4,38.33,0,0,16.55,12.77,33.93,1.93,15.67-13.92,34.69-27.21,41.93-48.49,5.44-16.02,3.09-34.72,3.09-51.53Z" style="fill: #f5bd90;"/>
  <g>
    <g>
      <path d="m163.44,116.55s1.52-.4,2.87.32c18.02,10.08,27.91-4.75,27.91-4.75-15.07-15.92-27.92,1.07-27.92,1.07l-2.86,3.36" style="fill: #fff;"/>
      <path d="m187.09,114.03c-.64,4.17-4.56,7.04-8.73,6.39-4.18-.65-7.04-4.55-6.39-8.72.64-4.18,4.55-7.05,8.72-6.4,4.18.63,7.04,4.55,6.4,8.72Z" style="fill: #00b0c2;"/>
      <path d="m185.79,113.83c-.53,3.46-3.77,5.82-7.23,5.29-3.45-.53-5.82-3.78-5.29-7.23.53-3.46,3.77-5.83,7.22-5.3,3.45.53,5.83,3.77,5.29,7.23Z" style="fill: #71c4c6;"/>
      <g>
        <path d="m179.64,112.81l5.23-3.3c-.11-.18-.24-.36-.37-.52l-4.86,3.81h0Z" style="fill: #00b0c2;"/>
        <path d="m179.65,112.84l5.79-2.2c-.07-.19-.16-.4-.26-.59l-5.53,2.77h0Z" style="fill: #00b0c2;"/>
        <path d="m179.63,112.79l4.45-4.29c-.15-.15-.3-.3-.47-.43l-3.99,4.71h.01Z" style="fill: #00b0c2;"/>
        <path d="m179.65,112.87l6.19.3c0-.22,0-.43,0-.65l-6.18.33h0Z" style="fill: #00b0c2;"/>
        <path d="m179.65,112.85l6.11-.97c-.03-.21-.07-.42-.13-.62l-5.99,1.58h0Z" style="fill: #00b0c2;"/>
        <path d="m179.64,112.91l5.55,2.74c.1-.18.18-.38.26-.58l-5.81-2.17h0Z" style="fill: #00b0c2;"/>
        <path d="m179.63,112.93l4.88,3.82c.13-.17.25-.34.37-.53l-5.24-3.3s0,.01,0,.02Z" style="fill: #00b0c2;"/>
        <path d="m179.59,112.75l2.41-5.69c-.2-.08-.4-.15-.59-.22l-1.83,5.89s0,.01.01.01Z" style="fill: #00b0c2;"/>
        <path d="m179.61,112.76l3.5-5.08c-.17-.12-.36-.23-.54-.33l-2.96,5.41h0Z" style="fill: #00b0c2;"/>
        <path d="m179.42,112.79l-4.47-4.28c-.14.15-.29.32-.41.49l4.88,3.8s0,0,0,0Z" style="fill: #00b0c2;"/>
        <path d="m179.4,112.85l-6.12-.94c-.03.21-.05.42-.06.64l6.18.31s0,0,0,0Z" style="fill: #00b0c2;"/>
        <path d="m179.44,112.77l-3.51-5.08c-.18.11-.35.25-.51.39l4,4.7s0-.01.01-.01Z" style="fill: #00b0c2;"/>
        <path d="m179.41,112.8l-5.24-3.27c-.12.17-.22.37-.31.56l5.55,2.74s0,0,0-.02Z" style="fill: #00b0c2;"/>
        <path d="m179.52,112.74v-6.18c-.21,0-.42.02-.64.04l.63,6.14h0Z" style="fill: #00b0c2;"/>
        <path d="m179.49,112.74l-1.24-6.05c-.21.05-.42.1-.62.16l1.84,5.89s.01,0,.02,0Z" style="fill: #00b0c2;"/>
        <path d="m179.46,112.76l-2.42-5.68c-.19.08-.39.17-.57.28l2.98,5.41h.01Z" style="fill: #00b0c2;"/>
        <path d="m179.4,112.82l-5.8-2.15c-.08.19-.13.4-.19.61l5.99,1.55v-.02Z" style="fill: #00b0c2;"/>
        <path d="m179.4,112.87l-6.18.32c0,.21.03.43.06.64l6.12-.95s0-.01,0-.01Z" style="fill: #00b0c2;"/>
        <path d="m179.48,112.98l-1.84,5.9c.2.06.41.12.61.16l1.23-6.06h-.01Z" style="fill: #00b0c2;"/>
        <path d="m179.44,112.95l-4.01,4.71c.16.14.33.27.5.39l3.51-5.08h0Z" style="fill: #00b0c2;"/>
        <path d="m179.46,112.96l-2.98,5.42c.18.1.37.19.57.27l2.42-5.68s-.01,0-.01,0Z" style="fill: #00b0c2;"/>
        <path d="m179.4,112.88l-5.98,1.58c.05.2.12.41.19.6l5.8-2.18s0,0,0,0Z" style="fill: #00b0c2;"/>
        <path d="m179.42,112.93l-4.87,3.8c.13.17.27.33.41.5l4.47-4.29h0Z" style="fill: #00b0c2;"/>
        <path d="m179.41,112.9l-5.54,2.75c.1.2.2.38.31.56l5.23-3.3h0Z" style="fill: #00b0c2;"/>
        <path d="m179.63,112.93s0,0,0,0l4,4.73c.16-.14.32-.29.47-.44l-4.46-4.29Z" style="fill: #00b0c2;"/>
        <path d="m179.55,112.74h.01l1.22-6.05c-.2-.04-.4-.07-.61-.09l-.62,6.14h0Z" style="fill: #00b0c2;"/>
        <path d="m179.53,112.99h-.02l-.64,6.14c.22.03.43.03.64.03l.02-6.17Z" style="fill: #00b0c2;"/>
        <path d="m179.55,112.98l.61,6.15c.21-.02.42-.06.63-.09l-1.23-6.06h-.01Z" style="fill: #00b0c2;"/>
        <path d="m179.59,112.97s0,0,0,0l1.82,5.9c.21-.07.4-.14.6-.22l-2.42-5.7Z" style="fill: #00b0c2;"/>
        <path d="m179.61,112.96s0,0-.01,0l2.98,5.42c.19-.11.37-.22.54-.34l-3.51-5.09Z" style="fill: #00b0c2;"/>
        <path d="m185.77,113.79l-6.12-.91h0s6,1.56,6,1.56c.05-.19.1-.41.13-.62v-.03Z" style="fill: #00b0c2;"/>
      </g>
      <path d="m182.4,113.22c-.24,1.53-1.66,2.58-3.19,2.35-1.53-.25-2.58-1.68-2.35-3.2.24-1.53,1.67-2.58,3.2-2.34,1.53.24,2.57,1.67,2.34,3.19Z" style="fill: #1d1d1b;"/>
      <path d="m183.43,112.02c-.12.71-.78,1.2-1.48,1.08-.71-.1-1.2-.77-1.09-1.48.11-.71.78-1.2,1.48-1.09.71.11,1.19.78,1.09,1.48Z" style="fill: #fff;"/>
      <path d="m163.44,116.55s9.07-10.33,17.59-10.32c0,0,6.9-.1,13.13,5.97,0,0,3.63-1.7,4.46-4.75,0,0-1.79,1.69-6.25.02,0,0-8.77-6.5-17.14-3.01,0,0-7,3.01-11.8,12.09Z" style="fill: #422918;"/>
      <path d="m194.16,112.2s-8.41,13.56-22.71,6.97c0,0,13.72,5.7,21.78-7.84l.94.87Z" style="fill: #1d1d1b;"/>
    </g>
    <path d="m166.15,110.14s.69-2.09,2.82-4.63c1.07-1.24,2.47-2.65,4.3-3.71.88-.56,1.91-.99,2.94-1.39,1.05-.38,2.16-.66,3.29-.81,2.26-.2,4.56,0,6.56.58,2.01.46,3.81,1.44,5.12,2.44.66.5,1.32.87,1.74,1.42.45.49.84.92,1.16,1.28.61.71.96,1.12.96,1.12,0,0-.45-.29-1.25-.8-.38-.26-.84-.58-1.37-.95-.49-.39-1.22-.6-1.88-1-.67-.39-1.44-.71-2.25-.96-.78-.34-1.79-.45-2.68-.68-1.85-.46-3.89-.51-5.85-.25-3.98.35-7.57,2.58-9.92,4.59-2.38,2.02-3.7,3.76-3.7,3.76Z" style="fill: #ce8d61;"/>
    <path d="m189.89,107.71s5.91-.29,6.93-5.02c0,0-2.64,5.14-7.4,3.96l.47,1.06Z" style="fill: #1d1d1b;"/>
    <path d="m192.26,108.86s5.9-.29,6.92-5.03c0,0-2.63,5.15-7.4,3.96l.48,1.07Z" style="fill: #1d1d1b;"/>
    <path d="m188.73,107.35s5.36-2.49,4.51-7.26c0,0-.49,5.75-5.35,6.45l.84.81Z" style="fill: #1d1d1b;"/>
    <path d="m186.99,106.31s4.6-2.15,3.88-6.24c0,0-.42,4.94-4.6,5.55l.72.69Z" style="fill: #1d1d1b;"/>
  </g>
  <g>
    <g>
      <path d="m133.03,116.55s-1.51-.4-2.87.32c-18.02,10.08-27.91-4.75-27.91-4.75,15.07-15.92,27.92,1.07,27.92,1.07l2.85,3.36" style="fill: #fff;"/>
      <path d="m109.39,114.03c.64,4.17,4.55,7.04,8.73,6.39,4.18-.65,7.04-4.55,6.4-8.72-.65-4.18-4.55-7.05-8.73-6.4-4.18.63-7.04,4.55-6.4,8.72Z" style="fill: #00b0c2;"/>
      <path d="m110.69,113.83c.53,3.46,3.77,5.82,7.23,5.29,3.46-.53,5.82-3.78,5.28-7.23-.52-3.46-3.76-5.83-7.22-5.3-3.46.53-5.83,3.77-5.29,7.23Z" style="fill: #71c4c6;"/>
      <g>
        <path d="m116.83,112.81l-5.22-3.3c.11-.18.23-.36.37-.52l4.86,3.81s0,0,0,.01Z" style="fill: #00b0c2;"/>
        <path d="m116.83,112.84l-5.79-2.2c.07-.19.17-.4.26-.59l5.53,2.77s0,0,0,.01Z" style="fill: #00b0c2;"/>
        <path d="m116.85,112.79l-4.45-4.29c.14-.15.3-.3.46-.43l4,4.71h0Z" style="fill: #00b0c2;"/>
        <path d="m116.82,112.87l-6.19.3c0-.22,0-.43,0-.65l6.18.33h0Z" style="fill: #00b0c2;"/>
        <path d="m116.82,112.85l-6.11-.97c.03-.21.07-.42.13-.62l5.99,1.58s0,0,0,0Z" style="fill: #00b0c2;"/>
        <path d="m116.83,112.91l-5.55,2.74c-.09-.18-.18-.38-.25-.58l5.8-2.17h0Z" style="fill: #00b0c2;"/>
        <path d="m116.84,112.93l-4.88,3.82c-.13-.17-.25-.34-.37-.53l5.24-3.3s0,.01.01.02Z" style="fill: #00b0c2;"/>
        <path d="m116.88,112.75l-2.4-5.69c.19-.08.4-.15.6-.22l1.82,5.89s-.01.01-.02.01Z" style="fill: #00b0c2;"/>
        <path d="m116.86,112.76l-3.5-5.08c.18-.12.36-.23.54-.33l2.97,5.41h-.01Z" style="fill: #00b0c2;"/>
        <path d="m117.06,112.79l4.47-4.28c.16.15.29.32.42.49l-4.87,3.8s0,0,0,0Z" style="fill: #00b0c2;"/>
        <path d="m117.08,112.85l6.11-.94c.04.21.05.42.06.64l-6.18.31s0,0,0,0Z" style="fill: #00b0c2;"/>
        <path d="m117.04,112.77l3.51-5.08c.18.11.35.25.51.39l-4.01,4.7s0-.01-.01-.01Z" style="fill: #00b0c2;"/>
        <path d="m117.07,112.8l5.24-3.27c.11.17.22.37.32.56l-5.56,2.74v-.02Z" style="fill: #00b0c2;"/>
        <path d="m116.96,112.74v-6.18c.21,0,.42.02.64.04l-.62,6.14h-.01Z" style="fill: #00b0c2;"/>
        <path d="m116.99,112.74l1.24-6.05c.21.05.41.1.62.16l-1.84,5.89s0,0-.01,0Z" style="fill: #00b0c2;"/>
        <path d="m117.01,112.76l2.43-5.68c.19.08.39.17.57.28l-2.98,5.41h-.02Z" style="fill: #00b0c2;"/>
        <path d="m117.07,112.82l5.81-2.15c.07.19.13.4.19.61l-5.99,1.55s0-.01,0-.02Z" style="fill: #00b0c2;"/>
        <path d="m117.07,112.87l6.18.32c0,.21-.03.43-.06.64l-6.11-.95s0-.01,0-.01Z" style="fill: #00b0c2;"/>
        <path d="m116.99,112.98l1.84,5.9c-.2.06-.41.12-.62.16l-1.23-6.06h0Z" style="fill: #00b0c2;"/>
        <path d="m117.04,112.95l4.02,4.71c-.16.14-.33.27-.51.39l-3.51-5.08h0Z" style="fill: #00b0c2;"/>
        <path d="m117.02,112.96l2.98,5.42c-.19.1-.38.19-.58.27l-2.42-5.68s0,0,.01,0Z" style="fill: #00b0c2;"/>
        <path d="m117.08,112.88l5.98,1.58c-.05.2-.12.41-.19.6l-5.8-2.18s0,0,0,0Z" style="fill: #00b0c2;"/>
        <path d="m117.06,112.93l4.87,3.8c-.12.17-.26.33-.41.5l-4.47-4.29s0,0,0,0Z" style="fill: #00b0c2;"/>
        <path d="m117.07,112.9l5.54,2.75c-.1.2-.2.38-.31.56l-5.23-3.3h0Z" style="fill: #00b0c2;"/>
        <path d="m116.85,112.93h0s-4,4.73-4,4.73c-.16-.14-.32-.29-.47-.44l4.46-4.29Z" style="fill: #00b0c2;"/>
        <path d="m116.93,112.74h-.02l-1.21-6.05c.2-.04.41-.07.62-.09l.62,6.14h0Z" style="fill: #00b0c2;"/>
        <path d="m116.94,112.99h.01l.64,6.14c-.21.03-.43.03-.64.03v-6.17Z" style="fill: #00b0c2;"/>
        <path d="m116.93,112.98l-.61,6.15c-.21-.02-.42-.06-.63-.09l1.23-6.06h.02Z" style="fill: #00b0c2;"/>
        <path d="m116.89,112.97s.01,0,.01,0l-1.83,5.9c-.21-.07-.4-.14-.6-.22l2.42-5.7Z" style="fill: #00b0c2;"/>
        <path d="m116.86,112.96s.01,0,.01,0l-2.98,5.42c-.18-.11-.37-.22-.55-.34l3.52-5.09Z" style="fill: #00b0c2;"/>
        <path d="m110.71,113.79l6.13-.91h0s-5.99,1.56-5.99,1.56c-.06-.19-.1-.41-.13-.62v-.03Z" style="fill: #00b0c2;"/>
      </g>
      <path d="m114.07,113.22c.23,1.53,1.67,2.58,3.19,2.35,1.53-.25,2.58-1.68,2.34-3.2-.24-1.53-1.67-2.58-3.2-2.34-1.53.24-2.57,1.67-2.34,3.19Z" style="fill: #1d1d1b;"/>
      <path d="m113.04,112.02c.11.71.77,1.2,1.49,1.08.71-.1,1.19-.77,1.09-1.48-.11-.71-.78-1.2-1.49-1.09-.7.11-1.19.78-1.09,1.48Z" style="fill: #fff;"/>
      <path d="m133.03,116.55s-9.07-10.33-17.6-10.32c0,0-6.89-.1-13.12,5.97,0,0-3.63-1.7-4.46-4.75,0,0,1.79,1.69,6.25.02,0,0,8.77-6.5,17.14-3.01,0,0,7,3.01,11.8,12.09Z" style="fill: #422918;"/>
      <path d="m102.31,112.2s8.41,13.56,22.72,6.97c0,0-13.72,5.7-21.78-7.84l-.95.87Z" style="fill: #1d1d1b;"/>
    </g>
    <path d="m130.33,110.14s-1.32-1.74-3.7-3.76c-2.35-2.01-5.94-4.23-9.92-4.59-1.96-.25-3.99-.2-5.85.25-.89.23-1.9.34-2.68.68-.81.25-1.57.57-2.25.96-.66.4-1.39.61-1.88,1-.53.36-.99.68-1.37.95-.8.51-1.25.8-1.25.8,0,0,.35-.41.95-1.12.33-.35.71-.79,1.16-1.28.42-.54,1.08-.92,1.74-1.42,1.31-1,3.11-1.98,5.13-2.44,2-.59,4.3-.79,6.56-.58,1.14.15,2.24.43,3.29.81,1.04.4,2.06.83,2.95,1.39,1.83,1.06,3.22,2.47,4.3,3.71,2.13,2.54,2.82,4.63,2.82,4.63Z" style="fill: #ce8d61;"/>
    <path d="m106.59,107.71s-5.91-.29-6.93-5.02c0,0,2.63,5.14,7.4,3.96l-.47,1.06Z" style="fill: #1d1d1b;"/>
    <path d="m104.21,108.86s-5.91-.29-6.92-5.03c0,0,2.63,5.15,7.4,3.96l-.48,1.07Z" style="fill: #1d1d1b;"/>
    <path d="m107.75,107.35s-5.36-2.49-4.51-7.26c0,0,.5,5.75,5.35,6.45l-.84.81Z" style="fill: #1d1d1b;"/>
    <path d="m109.49,106.31s-4.6-2.15-3.88-6.24c0,0,.42,4.94,4.6,5.55l-.72.69Z" style="fill: #1d1d1b;"/>
  </g>
  <g>
    <path d="m138.48,102.01c-.22-.7,3.28,20.58-.65,44.4,0,0-5.6,11.33,4.58,11.33,0,0-4.35-.93-2.29-8.32,0,0,6.22-22.9-1.64-47.41Z" style="fill: #ecaa7e;"/>
    <path d="m154.55,146.64s6.25,6.7,0,10.17c0,0,5.09,0,5.32-5.09,0,0-.46-5.54-5.32-5.08Z" style="fill: #ecaa7e;"/>
    <path d="m143.57,156.81s.71-.35,1.92-.12c.28.1.63.18.95.43.34.17.66.62.84.9.16.24.31.32.47.46.16.12.26.1.37.13.14-.09.29,0,.51-.22.2-.13.45-.22.64-.46.21-.21.44-.38.66-.56.19-.19.65-.52.93-.6.61-.24,1.12-.13,1.45-.07.33.05.5.11.5.11,0,0-.17.11-.45.24-.3.09-.65.35-.98.63-.17.17-.2.18-.36.48-.17.29-.35.6-.58.89-.42.58-1.12,1.25-2.29,1.4-.6-.03-1.17-.25-1.55-.59-.37-.31-.64-.78-.78-1.12-.16-.28-.12-.42-.29-.61-.09-.2-.31-.34-.47-.48-.76-.56-1.5-.84-1.5-.84Z" style="fill: #ecaa7e;"/>
  </g>
  <path d="m134.75,91s-22.27-7.4-30.7-7.4c0,0-7.27-.39-11.56,8.76,0,0,5.68-5.99,13.65-3.84l28.6,7.35s2.34-2.34,0-4.87Z" style="fill: #9d571e;"/>
  <path d="m160.24,91s22.26-7.4,30.7-7.4c0,0,7.27-.39,11.55,8.76,0,0-5.68-5.99-13.65-3.84l-28.6,7.35s-2.34-2.34,0-4.87Z" style="fill: #9d571e;"/>
  <g>
    <g>
      <path d="m157.99,169.38c-5.91-2.9-8.79,0-8.79,0,0,0-2.89-2.9-8.8,0,0,0-8.62,3.89-12.46,3.64,2.93.34,17.9,2.03,21.26,1.37,3.36.66,17.16-1.05,20.09-1.4-3.84.25-11.29-3.61-11.29-3.61Z" style="fill: #ed706f;"/>
      <path d="m127.93,173.02s9.34,10.1,21.26,9.87c0,0,12.87-.46,20.09-9.9l-39.91.03h-1.44Z" style="fill: #ed706f;"/>
    </g>
    <path d="m131.24,174.03c3.02.22,6.05.37,9.06.33,1.5-.06,3.01-.05,4.49-.25.73-.12,1.48-.16,2.2-.33l2.12-.56.16-.04.1.02c2.7.6,5.48.91,8.25,1.17,1.39.07,2.78.17,4.18.11,1.4.06,2.78-.16,4.18-.28-1.37.27-2.75.64-4.15.71-1.41.17-2.82.13-4.24.15-2.82-.08-5.62-.43-8.41-.96l.26-.03-2.27.6c-.76.17-1.53.19-2.3.29-.76.12-1.53.12-2.29.14-.76,0-1.53.06-2.29,0-3.05-.08-6.07-.48-9.05-1.06Z" style="fill: #ea5765;"/>
    <path d="m162.09,176.32c-4.63.83-9.44,1.49-14.15,1.28-2.53-.11-5.05-.37-7.56-.67-1.91-.23-3.8-.38-5.61-1.06-1.83-.69-3.86-1.39-5.43-2.57-.17-.12-.35-.24-.53-.36-.26.02-.53.05-.76.03,0,0,9.34,10.1,21.26,9.87,0,0,12.22-.46,19.52-9.22-.1.01-.19.03-.28.06-1.77,1.52-4.18,2.22-6.48,2.63Z" style="fill: #fff; opacity: .2;"/>
    <path d="m168.11,172.91c-7.32,8.59-19.36,9.04-19.36,9.04-9.72.19-17.73-6.49-20.35-8.96-.1,0-.23.03-.33.02,0,0,9.34,10.1,21.26,9.87,0,0,12.88-.46,20.09-9.9-.39.03-.84-.02-1.3-.07Z" style="fill: #ea5765;"/>
    <path d="m128.72,173.64c4.07-.14,11.8-3.61,11.8-3.61,5.92-2.89,8.8,0,8.8,0,0,0,2.89-2.89,8.8,0,0,0,6.78,3.49,10.73,3.59.19-.23.39-.43.56-.67-3.84.25-11.29-3.61-11.29-3.61-5.91-2.9-8.8,0-8.8,0,0,0-2.88-2.9-8.8,0,0,0-8.62,3.89-12.46,3.63,0,0,.24.26.66.66Z" style="fill: #ea5765;"/>
    <path d="m163.89,175.12s-7.82,4.08-18.1,2.36c0,0-1.34.94,0,1.58,0,0,10.36,1.6,18.1-3.94Z" style="fill: #fff;"/>
  </g>
  <path d="m275.5,299.75c.24-37.19-25.64-50.21-25.64-50.21l-73.12-19.75-26.51-1.86v-.02h-.1s-.1,0-.1,0v.02l-26.51,1.86-73.11,19.75s-25.89,13.02-25.64,50.21h250.73Z" style="fill: #f5bd90;"/>
  <path d="m111.6,54.4s-22.26,14.35-24.59,60.42c0,0-4.63-7.97-10.55-2.03,0,0-16.15-86.19,40.82-95.65l-5.68,37.26Z" style="fill: #f18a32;"/>
  <path d="m76.51,62.15s0-.02-.02-.03c0,0-.05.29-.13.8-.35,1.85-.66,3.7-.9,5.55-4.14,26.64-18.2,130.37,6.49,173.03,1.15-.32,2.28-.69,3.42-1.03-23.88-43.29-10.02-145.57-5.91-172,.25-1.85.55-3.7.9-5.55.08-.51.13-.8.13-.8,0,0,0,.02.02.03,3.82-19.62,13.65-38.75,36.62-44.44l.13-.87c-25.95,4.31-36.71,24.56-40.75,45.31Z" style="fill: #b96e25;"/>
  <g>
    <path d="m91.63,149.43c0,2.55-2.07,4.63-4.63,4.63s-4.63-2.07-4.63-4.63,2.07-4.63,4.63-4.63,4.63,2.08,4.63,4.63Z" style="fill: #fff;"/>
    <path d="m87.01,144.8c-.45,0-.88.09-1.3.21,1.28.73,2.26,1.92,2.52,3.45.3,1.73-.39,3.69-2.33,4.05-.86.16-1.67.1-2.42-.11.85,1.01,2.1,1.66,3.53,1.66,2.55,0,4.63-2.07,4.63-4.63s-2.07-4.63-4.63-4.63Z" style="fill: #d9d9d9;"/>
  </g>
  <path d="m226.81,299.75c-2.65-7.02-6.39-24.23,1.75-56.41l-14.78-3.99s-6.36,35.34-34.57,60.41h47.59Z" style="fill: #333332;"/>
  <path d="m73.99,299.75h47.59c-28.22-25.06-34.57-60.41-34.57-60.41l-14.78,3.99c8.14,32.18,4.4,49.4,1.76,56.41Z" style="fill: #333332;"/>
  <path d="m199.18,98.21l3.25,3.96.06.43s5.01,109.1,1.51,197.15h36.89c3.18-92.56.66-235.1-41.22-278.48-.16-.22-.32-.46-.48-.67,0,0-2.85-3.46-8.24-7.39-10.69-7.79-31.38-17.46-59.7-5.79,0,0-24.06,10.04-24.18,31.51-.22,40.29,92.13,59.28,92.13,59.28Z" style="fill: #f18a32;"/>
  <path d="m199.36,98.54l3.25,3.96.06.42s5,108.84,1.52,196.83h5.24c3.92-88.89-1.29-202.34-1.29-202.34l-.06-.42-3.25-3.96s-92.35-18.99-92.13-59.28c.04-7.67,3.16-13.85,7.12-18.67-6.18,5.19-12.52,13.17-12.58,24.18-.22,40.3,92.12,59.28,92.12,59.28Z" style="fill: #b96e25;"/>
  <path d="m190.51,18.27c.16.23.32.45.48.68,42.23,43.75,44.44,188.33,41.14,280.81h8.76c3.18-92.56.66-235.1-41.22-278.48-.16-.22-.32-.46-.48-.67,0,0-2.85-3.46-8.24-7.39-5.43-3.96-13.46-8.39-23.74-10.27,6.2,2.2,11.27,5.18,15.06,7.95,5.39,3.93,8.24,7.38,8.24,7.38Z" style="fill: #b96e25;"/>
</svg>