<?xml version="1.0" encoding="UTF-8"?>
<svg xmlns="http://www.w3.org/2000/svg" viewBox="0 0 300 300">
  <g style="isolation: isolate;">
    <g id="Calque_2" data-name="Calque 2">
      <g>
        <g>
          <path d="m203.61,114.81s8.06-11.41,14.73-6.59c0,0,4.03,4.1,1.33,14.36-.49,1.86-.89,3.74-1.23,5.63-.26,1.45-.51,2.97-.58,4.46-.09,1.53.37,3.18-.05,4.69-.86,3.14-2.37,6.51-5.13,8.39-1.19.81-2.52,1.41-3.98,1.52-.6.04-5.31-.45-5.31-1.14l.23-31.31Z" style="fill: #f5bd90;"/>
          <path d="m203.58,118.27s6.51-9.21,11.88-5.31c0,0,3.25,3.3,1.07,11.58-.4,1.49-.72,3.02-1,4.54-.21,1.17-.41,2.4-.47,3.59-.07,1.24.3,2.56-.03,3.78-.69,2.54-1.92,5.24-4.15,6.76-.95.66-2.04,1.14-3.2,1.23-.49.03-4.29-.37-4.28-.92l.18-25.24Z" style="fill: #eab58a;"/>
        </g>
        <g>
          <path d="m92.18,115.88s-8.07-11.42-14.73-6.59c0,0-4.04,4.09-1.33,14.36.49,1.85.89,3.74,1.23,5.63.26,1.45.51,2.98.58,4.46.09,1.53-.37,3.17.04,4.69.86,3.14,2.38,6.5,5.14,8.39,1.19.81,2.53,1.41,3.97,1.52.61.03,5.32-.47,5.32-1.14l-.23-31.31Z" style="fill: #f5bd90;"/>
          <path d="m92.21,119.34s-6.51-9.19-11.87-5.3c0,0-3.25,3.31-1.08,11.57.4,1.49.72,3.02,1,4.54.22,1.17.4,2.41.47,3.59.06,1.24-.29,2.57.04,3.79.69,2.53,1.92,5.24,4.14,6.76.95.66,2.04,1.14,3.2,1.22.49.04,4.29-.36,4.28-.91l-.18-25.26Z" style="fill: #eab58a;"/>
        </g>
        <path d="m123.94,189.13s5.1,30.77-6.38,42.9h64.65s-13.2-24.52-5.87-45.61l-52.41,2.7Z" style="fill: #f5bd90;"/>
        <path d="m124.72,212.12c2.35,2.14,4.99,3.7,7.84,4.97,6.64,2.97,13.64,4.39,20.65,2.35,6.68-1.93,13.22-6.52,17.04-13.31,1.78-3.17,2.89-6.74,4.24-10.16.35-1.98,1.17-7.55,1.86-9.54l-52.41,2.7s1.51,13.01.78,22.99Z" style="fill: #e3b086;"/>
        <path d="m209.82,100.49c0-45-28.21-81.47-63-81.47s-62.98,36.47-62.98,81.47c0,21.76-1.21,40.11,9.56,59.29,9.56,17.04,21.13,25.68,38.09,38.03,0,0,16.42,12.66,33.67,1.91,15.55-13.81,34.41-26.99,41.59-48.11,5.41-15.89,3.08-34.44,3.08-51.12Z" style="fill: #f5bd90;"/>
        <g>
          <g>
            <path d="m164.42,110.12s1.34-.19,2.43.57c14.46,10.52,24.48-1.22,24.48-1.22-11.32-15.25-24.11-1.95-24.11-1.95l-2.8,2.59" style="fill: #fff;"/>
            <path d="m185.01,110.38c-.99,3.53-4.64,5.59-8.16,4.6-3.52-.98-5.59-4.64-4.61-8.16.98-3.52,4.64-5.58,8.16-4.6,3.53.99,5.59,4.64,4.61,8.16Z" style="fill: #5e720b;"/>
            <path d="m183.92,110.08c-.82,2.92-3.84,4.62-6.76,3.81-2.92-.82-4.62-3.85-3.81-6.76.81-2.92,3.84-4.63,6.75-3.81,2.92.81,4.62,3.84,3.82,6.76Z" style="fill: #7b910f;"/>
            <g style="mix-blend-mode: multiply;">
              <path d="m178.73,108.58l4.83-2.3c-.08-.18-.17-.34-.27-.49l-4.57,2.78h0Z" style="fill: #d9d9d9;"/>
              <path d="m178.74,108.59l5.19-1.29c-.04-.17-.1-.35-.16-.53l-5.04,1.81h0Z" style="fill: #d9d9d9;"/>
              <path d="m178.72,108.55l4.27-3.23c-.11-.14-.23-.29-.35-.42l-3.93,3.64h0Z" style="fill: #d9d9d9;"/>
              <path d="m178.73,108.62l5.3.9c.03-.19.05-.37.06-.56l-5.36-.35h0Z" style="fill: #d9d9d9;"/>
              <path d="m178.73,108.62l5.36-.21c0-.18-.02-.37-.04-.55l-5.31.75s0,0,0,.01Z" style="fill: #d9d9d9;"/>
              <path d="m178.72,108.66l4.49,2.92c.11-.14.2-.31.29-.48l-4.77-2.44h0Z" style="fill: #d9d9d9;"/>
              <path d="m178.71,108.67l3.8,3.78c.13-.12.25-.27.37-.42l-4.16-3.38s0,.01,0,.01Z" style="fill: #d9d9d9;"/>
              <path d="m178.69,108.52l2.65-4.64c-.16-.09-.33-.17-.49-.24l-2.17,4.87s0,.02,0,.02Z" style="fill: #d9d9d9;"/>
              <path d="m178.71,108.54l3.53-4.02c-.14-.12-.29-.25-.43-.34l-3.11,4.34s0,0,0,.01Z" style="fill: #d9d9d9;"/>
              <path d="m178.54,108.54l-3.4-4.14c-.14.11-.28.25-.4.37l3.79,3.77h0Z" style="fill: #d9d9d9;"/>
              <path d="m178.52,108.58l-5.16-1.44c-.04.19-.09.36-.11.54l5.29.91s0,0,0-.01Z" style="fill: #d9d9d9;"/>
              <path d="m178.56,108.52l-2.49-4.73c-.17.09-.33.18-.47.29l2.96,4.45s0-.01,0,0Z" style="fill: #d9d9d9;"/>
              <path d="m178.53,108.54l-4.17-3.36c-.12.14-.22.3-.32.45l4.49,2.93v-.02Z" style="fill: #d9d9d9;"/>
              <path d="m178.63,108.5l.64-5.31c-.19-.02-.37-.03-.55-.03l-.1,5.34s0,0,.01,0Z" style="fill: #d9d9d9;"/>
              <path d="m178.61,108.5l-.44-5.32c-.18.02-.36.04-.55.07l.98,5.25h.01Z" style="fill: #d9d9d9;"/>
              <path d="m178.59,108.5l-1.5-5.13c-.18.05-.36.11-.52.18l2.01,4.96s0,0,.01,0Z" style="fill: #d9d9d9;"/>
              <path d="m178.53,108.56l-4.77-2.44c-.08.16-.16.33-.23.5l4.99,1.95s0-.01,0-.01Z" style="fill: #d9d9d9;"/>
              <path d="m178.52,108.6l-5.35-.36c0,.18-.01.37,0,.55l5.35-.19h0Z" style="fill: #d9d9d9;"/>
              <path d="m178.58,108.71l-2.2,4.88c.18.08.35.14.52.2l1.68-5.08h0Z" style="fill: #d9d9d9;"/>
              <path d="m178.54,108.67l-3.94,3.63c.13.14.26.27.4.39l3.54-4.01h0Z" style="fill: #d9d9d9;"/>
              <path d="m178.56,108.68l-3.12,4.35c.15.11.31.21.47.3l2.67-4.64s-.01,0-.01-.01Z" style="fill: #d9d9d9;"/>
              <path d="m178.52,108.62l-5.3.74c.02.18.06.37.1.54l5.2-1.28h0Z" style="fill: #d9d9d9;"/>
              <path d="m178.52,108.66l-4.57,2.76c.09.16.19.32.3.46l4.28-3.22h-.01Z" style="fill: #d9d9d9;"/>
              <path d="m178.52,108.62l-5.04,1.8c.06.17.13.35.21.51l4.83-2.3h0Z" style="fill: #d9d9d9;"/>
              <path d="m178.71,108.68s0,0,0,0l2.96,4.47c.15-.1.31-.21.44-.33l-3.39-4.14Z" style="fill: #d9d9d9;"/>
              <path d="m178.66,108.5h0l1.67-5.08c-.17-.06-.35-.1-.52-.14l-1.16,5.21h0Z" style="fill: #d9d9d9;"/>
              <path d="m178.62,108.71h0l-1.18,5.22c.18.04.36.07.54.09l.65-5.31Z" style="fill: #d9d9d9;"/>
              <path d="m178.63,108.71l-.11,5.35c.19,0,.37,0,.55-.02l-.44-5.33h0Z" style="fill: #d9d9d9;"/>
              <path d="m178.67,108.71s0,0,0,0l.96,5.26c.18-.03.36-.08.54-.13l-1.49-5.14Z" style="fill: #d9d9d9;"/>
              <path d="m178.69,108.7s0,0-.01,0l2.01,4.96c.16-.06.33-.13.49-.22l-2.49-4.74Z" style="fill: #d9d9d9;"/>
              <path d="m183.91,110.05l-5.17-1.41h-.01l5,1.96c.07-.18.12-.35.17-.52v-.03Z" style="fill: #d9d9d9;"/>
            </g>
            <path d="m181.07,109.2c-.36,1.29-1.69,2.05-2.99,1.69-1.28-.35-2.05-1.7-1.68-2.99.36-1.28,1.7-2.05,2.98-1.68,1.3.36,2.04,1.7,1.68,2.99Z" style="fill: #1d1d1b;"/>
            <path d="m182.07,108.28c-.17.6-.79.95-1.39.78-.6-.17-.95-.78-.78-1.38.17-.6.79-.95,1.39-.78.6.17.96.78.78,1.38Z" style="fill: #fff;"/>
            <path d="m164.42,110.12s8.85-7.95,16.19-7.07c0,0,5.93.62,10.67,6.48,0,0,3.3-1.1,4.33-3.63,0,0-1.72,1.28-5.38-.62,0,0-6.87-6.49-14.42-4.35,0,0-6.33,1.87-11.39,9.19Z" style="fill: #1d1d1b;"/>
            <path d="m191.28,109.54s-8.62,10.8-20.25,3.66c0,0,11.21,6.3,19.53-4.51l.72.84Z" style="fill: #1d1d1b;"/>
          </g>
          <path d="m167.41,104.88s.83-1.7,2.9-3.68c1.07-.94,2.39-2,4.08-2.73.78-.49,1.76-.56,2.68-.84l1.42-.35h1.47c.98.1,1.99.01,2.91.27.91.31,1.8.6,2.66.89,1.74.46,3.14,1.58,4.18,2.55,1.12.9,1.72,1.96,2.21,2.61.45.68.71,1.07.71,1.07,0,0-.36-.3-.99-.82-.3-.26-.66-.58-1.08-.95-.38-.38-.99-.63-1.52-1.05-1.06-.78-2.46-1.47-4.09-1.83-.78-.23-1.6-.46-2.42-.7-.83-.19-1.71-.05-2.56-.11l-1.3-.07-1.25.26c-.82.22-1.7.21-2.41.64-.76.32-1.5.62-2.2.91-.66.4-1.28.77-1.85,1.11-2.24,1.5-3.58,2.83-3.58,2.83Z" style="fill: #ce8d61;"/>
          <path d="m188.07,105.24s5.11.36,6.47-3.6c0,0-2.79,4.15-6.77,2.64l.3.97Z" style="fill: #1d1d1b;"/>
          <path d="m189.99,106.46s5.11.36,6.47-3.6c0,0-2.79,4.15-6.76,2.65l.29.95Z" style="fill: #1d1d1b;"/>
          <path d="m187.11,104.81s4.86-1.6,4.62-5.78c0,0-1.01,4.89-5.26,5l.64.78Z" style="fill: #1d1d1b;"/>
          <path d="m185.72,103.74s4.18-1.37,3.98-4.97c0,0-.87,4.21-4.53,4.3l.55.67Z" style="fill: #1d1d1b;"/>
        </g>
        <g>
          <g>
            <path d="m133.51,110.08s-1.35-.19-2.43.57c-14.43,10.56-24.49-1.15-24.49-1.15,11.28-15.28,24.11-2.01,24.11-2.01l2.81,2.59" style="fill: #fff;"/>
            <path d="m112.92,110.39c.99,3.53,4.66,5.58,8.18,4.58,3.52-.99,5.57-4.65,4.58-8.17-1-3.52-4.66-5.57-8.17-4.59-3.53,1-5.58,4.65-4.59,8.17Z" style="fill: #5e720b;"/>
            <path d="m114.02,110.09c.82,2.91,3.85,4.61,6.77,3.79,2.92-.82,4.61-3.86,3.79-6.77-.82-2.92-3.85-4.62-6.77-3.79-2.92.82-4.61,3.85-3.79,6.77Z" style="fill: #7b910f;"/>
            <g style="mix-blend-mode: multiply;">
              <path d="m119.2,108.58l-4.84-2.3c.08-.17.17-.33.27-.48l4.58,2.77h0Z" style="fill: #d9d9d9;"/>
              <path d="m119.19,108.59l-5.2-1.28c.05-.17.1-.36.16-.53l5.04,1.8h0Z" style="fill: #d9d9d9;"/>
              <path d="m119.2,108.54l-4.28-3.21c.11-.15.23-.29.36-.43l3.93,3.64h0Z" style="fill: #d9d9d9;"/>
              <path d="m119.19,108.62l-5.28.91c-.03-.19-.05-.37-.06-.55l5.35-.36h0Z" style="fill: #d9d9d9;"/>
              <path d="m119.19,108.61l-5.36-.19c0-.18.02-.37.05-.55l5.31.73h0Z" style="fill: #d9d9d9;"/>
              <path d="m119.2,108.66l-4.48,2.93c-.11-.15-.2-.31-.28-.48l4.76-2.47h0Z" style="fill: #d9d9d9;"/>
              <path d="m119.21,108.66l-3.79,3.79c-.13-.12-.26-.26-.37-.42l4.15-3.38s0,0,0,0Z" style="fill: #d9d9d9;"/>
              <path d="m119.24,108.51l-2.66-4.64c.16-.09.32-.17.49-.24l2.18,4.87s0,0,0,0Z" style="fill: #d9d9d9;"/>
              <path d="m119.22,108.52l-3.54-4c.13-.12.28-.24.42-.34l3.12,4.33h0Z" style="fill: #d9d9d9;"/>
              <path d="m119.38,108.53l3.39-4.14c.14.11.27.24.4.37l-3.79,3.78s0,0,0,0Z" style="fill: #d9d9d9;"/>
              <path d="m119.4,108.58l5.16-1.45c.05.19.09.36.12.54l-5.28.91h0Z" style="fill: #d9d9d9;"/>
              <path d="m119.36,108.51l2.49-4.73c.17.08.32.17.48.28l-2.95,4.47s0-.01,0-.01Z" style="fill: #d9d9d9;"/>
              <path d="m119.39,108.54l4.16-3.37c.12.14.22.3.32.45l-4.48,2.93v-.02Z" style="fill: #d9d9d9;"/>
              <path d="m119.3,108.5l-.66-5.31c.18-.02.37-.03.55-.04l.11,5.35h0Z" style="fill: #d9d9d9;"/>
              <path d="m119.32,108.5l.43-5.33c.18.02.36.04.55.07l-.96,5.26h-.01Z" style="fill: #d9d9d9;"/>
              <path d="m119.34,108.5l1.49-5.14c.18.05.35.11.52.18l-2,4.96h-.01Z" style="fill: #d9d9d9;"/>
              <path d="m119.4,108.55l4.76-2.45c.09.16.16.33.23.5l-4.99,1.96s0,0,0,0Z" style="fill: #d9d9d9;"/>
              <path d="m119.4,108.59l5.35-.37c.02.18.02.37.02.55l-5.36-.17s0,0,0-.01Z" style="fill: #d9d9d9;"/>
              <path d="m119.34,108.7l2.21,4.88c-.17.08-.34.15-.51.21l-1.69-5.07s0,0,0,0Z" style="fill: #d9d9d9;"/>
              <path d="m119.38,108.66l3.95,3.62c-.13.14-.26.27-.4.39l-3.56-4h0Z" style="fill: #d9d9d9;"/>
              <path d="m119.37,108.68l3.13,4.34c-.15.11-.31.21-.47.3l-2.67-4.64s0,0,.01,0Z" style="fill: #d9d9d9;"/>
              <path d="m119.41,108.61l5.31.73c-.03.19-.06.36-.1.54l-5.22-1.26s0,0,0,0Z" style="fill: #d9d9d9;"/>
              <path d="m119.4,108.64l4.58,2.76c-.09.16-.19.31-.3.46l-4.29-3.21s0,0,0-.01Z" style="fill: #d9d9d9;"/>
              <path d="m119.4,108.62l5.05,1.79c-.06.18-.13.34-.21.51l-4.84-2.28h0Z" style="fill: #d9d9d9;"/>
              <path d="m119.22,108.67h0s-2.95,4.48-2.95,4.48c-.15-.1-.3-.21-.44-.32l3.38-4.16Z" style="fill: #d9d9d9;"/>
              <path d="m119.27,108.5h0s-1.68-5.07-1.68-5.07c.17-.06.34-.1.52-.14l1.17,5.2h0Z" style="fill: #d9d9d9;"/>
              <path d="m119.3,108.71h0l1.2,5.21c-.18.04-.36.07-.54.09l-.66-5.3Z" style="fill: #d9d9d9;"/>
              <path d="m119.3,108.71l.12,5.36c-.18,0-.37,0-.55-.02l.41-5.34s0,0,.02,0Z" style="fill: #d9d9d9;"/>
              <path d="m119.26,108.71h0l-.95,5.27c-.19-.03-.36-.08-.54-.13l1.48-5.14Z" style="fill: #d9d9d9;"/>
              <path d="m119.24,108.7h.01l-2,4.97c-.17-.06-.34-.13-.5-.22l2.48-4.74Z" style="fill: #d9d9d9;"/>
              <path d="m114.02,110.06l5.17-1.42h0l-4.99,1.97c-.07-.17-.12-.34-.17-.51v-.04Z" style="fill: #d9d9d9;"/>
            </g>
            <path d="m116.87,109.21c.36,1.29,1.7,2.03,2.99,1.67,1.28-.36,2.04-1.7,1.68-2.99-.36-1.29-1.71-2.04-2.99-1.68-1.29.37-2.04,1.71-1.67,2.99Z" style="fill: #1d1d1b;"/>
            <path d="m115.85,108.29c.18.59.8.94,1.4.77.6-.17.94-.78.78-1.38-.17-.6-.79-.95-1.39-.78-.61.17-.95.79-.79,1.39Z" style="fill: #fff;"/>
            <path d="m133.51,110.08s-8.88-7.93-16.2-7.03c0,0-5.94.64-10.66,6.51,0,0-3.29-1.08-4.33-3.62,0,0,1.72,1.27,5.37-.64,0,0,6.86-6.51,14.42-4.38,0,0,6.33,1.85,11.41,9.16Z" style="fill: #1d1d1b;"/>
            <path d="m106.65,109.56s8.65,10.78,20.26,3.61c0,0-11.19,6.34-19.54-4.45l-.72.84Z" style="fill: #1d1d1b;"/>
          </g>
          <path d="m130.51,104.86s-1.35-1.33-3.58-2.83c-.58-.34-1.2-.71-1.86-1.11-.7-.29-1.43-.59-2.19-.91-.72-.43-1.6-.41-2.42-.63l-1.25-.26-1.29.08c-.85.06-1.73-.07-2.56.12-.83.24-1.64.47-2.42.7-1.63.36-3.02,1.05-4.08,1.85-.52.41-1.13.66-1.51,1.05-.42.37-.78.7-1.08.95-.63.52-.99.82-.99.82,0,0,.26-.38.7-1.06.24-.34.53-.75.86-1.21.3-.52.83-.91,1.35-1.4,1.04-.97,2.43-2.1,4.17-2.56.86-.29,1.76-.59,2.66-.91.92-.24,1.93-.18,2.9-.27h1.47s1.42.34,1.42.34c.92.28,1.9.34,2.68.84,1.69.72,3.01,1.78,4.09,2.71,2.08,1.98,2.91,3.68,2.91,3.68Z" style="fill: #ce8d61;"/>
          <path d="m109.85,105.26s-5.1.37-6.48-3.58c0,0,2.8,4.14,6.77,2.62l-.29.96Z" style="fill: #1d1d1b;"/>
          <path d="m107.93,106.5s-5.11.37-6.47-3.6c0,0,2.8,4.14,6.76,2.63l-.29.97Z" style="fill: #1d1d1b;"/>
          <path d="m110.81,104.83s-4.87-1.59-4.64-5.76c0,0,1.03,4.89,5.27,4.98l-.63.79Z" style="fill: #1d1d1b;"/>
          <path d="m112.2,103.75s-4.18-1.36-3.99-4.96c0,0,.89,4.2,4.54,4.28l-.55.67Z" style="fill: #1d1d1b;"/>
        </g>
        <g>
          <path d="m138.33,99.51c-.22-.69,3.26,20.42-.64,44.05,0,0-5.55,11.24,4.55,11.24,0,0-4.31-.92-2.27-8.26,0,0,6.17-22.72-1.63-47.03Z" style="fill: #ecaa7e;"/>
          <path d="m154.27,143.79s6.19,6.65,0,10.09c0,0,5.04,0,5.27-5.05,0,0-.45-5.5-5.27-5.04Z" style="fill: #ecaa7e;"/>
          <path d="m143.38,153.87s.7-.34,1.9-.11c.28.11.63.18.94.43.34.17.66.61.84.89.16.24.31.32.46.46.15.11.27.1.37.12.13-.09.29,0,.51-.22.2-.13.44-.22.63-.46.2-.21.44-.38.65-.55.2-.2.66-.52.93-.6.61-.24,1.11-.12,1.44-.07.33.05.5.11.5.11,0,0-.17.11-.45.24-.29.09-.64.34-.97.62-.18.17-.2.19-.35.48-.17.29-.34.59-.57.88-.41.58-1.12,1.24-2.27,1.4-.59-.04-1.16-.25-1.54-.59-.36-.3-.64-.77-.78-1.11-.16-.28-.11-.42-.28-.61-.1-.2-.3-.33-.47-.48-.76-.55-1.49-.83-1.49-.83Z" style="fill: #ecaa7e;"/>
        </g>
        <path d="m134.62,88.59s-22.09-7.34-30.45-7.34c0,0-7.21-.39-11.46,8.69,0,0,5.63-5.94,13.54-3.81l28.38,7.29s2.32-2.32,0-4.83Z" style="fill: #422918;"/>
        <path d="m159.91,88.59s22.09-7.34,30.45-7.34c0,0,7.21-.39,11.47,8.69,0,0-5.64-5.94-13.55-3.81l-28.38,7.29s-2.32-2.32,0-4.83Z" style="fill: #422918;"/>
        <g>
          <g>
            <path d="m157.68,166.34c-5.87-2.88-8.73,0-8.73,0,0,0-2.86-2.88-8.73,0,0,0-8.56,3.86-12.36,3.61,2.91.34,17.75,2.01,21.08,1.36,3.33.66,17.03-1.04,19.93-1.39-3.8.25-11.19-3.58-11.19-3.58Z" style="fill: #ed706f;"/>
            <path d="m127.87,169.95s9.26,10.02,21.08,9.79c0,0,12.77-.45,19.93-9.82l-39.59.03h-1.42Z" style="fill: #ed706f;"/>
          </g>
          <path d="m131.14,170.95c3,.22,6,.37,8.98.33,1.49-.06,2.99-.05,4.45-.25.73-.11,1.47-.15,2.19-.33l2.1-.56.16-.04.1.02c2.68.59,5.44.91,8.19,1.15,1.38.07,2.76.18,4.14.11,1.39.06,2.75-.15,4.14-.28-1.36.27-2.72.63-4.12.71-1.4.17-2.8.13-4.2.15-2.8-.08-5.58-.43-8.34-.95l.26-.03-2.25.59c-.76.17-1.52.19-2.27.29-.76.11-1.52.12-2.28.14-.75,0-1.51.06-2.27,0-3.03-.09-6.03-.47-8.97-1.06Z" style="fill: #ea5765;"/>
          <path d="m161.75,173.23c-4.59.82-9.36,1.48-14.03,1.27-2.51-.11-5-.37-7.5-.66-1.89-.22-3.77-.38-5.56-1.05-1.81-.69-3.83-1.38-5.38-2.54-.17-.12-.35-.23-.52-.36-.26.02-.53.05-.76.03,0,0,9.27,10.03,21.09,9.79,0,0,12.12-.45,19.37-9.15-.1,0-.19.03-.27.06-1.75,1.51-4.15,2.2-6.43,2.61Z" style="fill: #fff; opacity: .2;"/>
          <path d="m167.72,169.85c-7.26,8.52-19.21,8.97-19.21,8.97-9.64.18-17.58-6.44-20.18-8.89-.11,0-.24.02-.34.02,0,0,9.27,10.02,21.09,9.79,0,0,12.77-.45,19.93-9.82-.39.02-.84-.02-1.3-.07Z" style="fill: #ea5765;"/>
          <path d="m128.64,170.57c4.04-.13,11.71-3.58,11.71-3.58,5.86-2.87,8.73,0,8.73,0,0,0,2.86-2.87,8.73,0,0,0,6.72,3.46,10.64,3.56.19-.22.38-.43.56-.66-3.81.25-11.2-3.58-11.2-3.58-5.87-2.87-8.73,0-8.73,0,0,0-2.86-2.87-8.73,0,0,0-8.55,3.87-12.36,3.61,0,0,.25.26.65.66Z" style="fill: #ea5765;"/>
          <path d="m163.54,172.04s-7.76,4.04-17.96,2.34c0,0-1.32.93,0,1.56,0,0,10.28,1.59,17.96-3.9Z" style="fill: #fff;"/>
        </g>
        <path d="m274.13,300c2.39-40.23-25.31-54.14-25.31-54.14l-72.53-19.59-26.29-1.84v-.02h-.1s-.1,0-.1,0v.02l-26.3,1.84-72.52,19.59s-27.71,13.91-25.31,54.14h248.48Z" style="fill: #f5bd90;"/>
        <g>
          <path d="m91.86,146.55c0,2.53-2.06,4.59-4.59,4.59s-4.59-2.06-4.59-4.59,2.06-4.6,4.59-4.6,4.59,2.06,4.59,4.6Z" style="fill: #fff;"/>
          <path d="m87.26,141.96c-.45,0-.88.09-1.29.21,1.26.72,2.24,1.91,2.5,3.42.29,1.72-.38,3.66-2.32,4.02-.85.15-1.66.1-2.4-.11.85,1,2.09,1.65,3.5,1.65,2.53,0,4.59-2.06,4.59-4.59s-2.06-4.6-4.59-4.6Z" style="fill: #d9d9d9;"/>
        </g>
        <g>
          <path d="m214.93,143.75c0,2.54-2.06,4.59-4.59,4.59s-4.59-2.05-4.59-4.59,2.06-4.59,4.59-4.59,4.59,2.06,4.59,4.59Z" style="fill: #fff;"/>
          <path d="m210.34,139.17c-.45,0-.88.08-1.28.21,1.27.72,2.25,1.91,2.5,3.42.29,1.72-.38,3.65-2.32,4.02-.85.16-1.66.1-2.4-.11.84.99,2.09,1.64,3.49,1.64,2.54,0,4.59-2.05,4.59-4.59s-2.06-4.59-4.59-4.59Z" style="fill: #d9d9d9;"/>
        </g>
        <path d="m227.72,300c.03-.3.05-.48.05-.48,0,0-11.18-15.91-.08-59.8l-14.66-3.96s-7.1,39.36-39.56,64.25h54.26Z" style="fill: #d32a26;"/>
        <path d="m72.57,300h54.26c-32.47-24.89-39.57-64.25-39.57-64.25l-14.66,3.96c11.1,43.89-.08,59.8-.08,59.8,0,0,.02.18.05.48Z" style="fill: #d32a26;"/>
        <path d="m274.13,300c2.39-40.23-25.31-54.14-25.31-54.14l-72.53-19.59-26.29-1.84v-.02h-.1s-.1,0-.1,0v.02l-26.3,1.84-72.52,19.59s-27.71,13.91-25.31,54.14h248.48Z" style="fill: #f5bd90;"/>
        <path d="m72.57,300h54.26c-32.47-24.89-39.57-64.25-39.57-64.25l-14.66,3.96c11.1,43.89-.08,59.8-.08,59.8,0,0,.02.18.05.48Z" style="fill: #d32a26;"/>
        <path d="m227.72,300c.03-.3.05-.48.05-.48,0,0-11.18-15.91-.08-59.8l-14.66-3.96s-7.1,39.36-39.56,64.25h54.26Z" style="fill: #d32a26;"/>
        <path d="m25.6,300h92.18l-22.39-67.97-44.42,13.83s-27.65,13.84-25.35,53.94c0,.06,0,.14-.02.2Z" style="fill: #3c3c3b;"/>
        <path d="m274.69,300c0-.06-.01-.14-.02-.2,2.31-40.1-25.35-53.94-25.35-53.94l-44.43-13.83-22.38,67.97h92.17Z" style="fill: #3c3c3b;"/>
        <path d="m87.82,71.94s22.84,6.73,55.56,9.3l4.84-12.67,6.06,12.67,18.49-2.4-7.16-36.58s14.49,36.49,44.34,65.7c0,0,4.16-1.69,6.28-.72,0,0,8.05-78.32-39.87-96.51,0,0-29.73-17.18-61.98,0,0,0-25.95,12.42-35.87,54.6,0,0,2.65,4.88,9.32,6.61Z" style="fill: #422918;"/>
        <path d="m97.47,74.37l-13.7,34.24s-6.77-2.56-7.67,3.08c0,0-2.24-35.25,4.49-53.03l16.89,15.71Z" style="fill: #422918;"/>
        <polygon points="83.77 293.93 88.91 300 117.78 300 95.39 232.03 65 242.07 99.85 283.37 83.77 293.93" style="fill: #2d2d2b;"/>
        <polygon points="211.52 300 216.66 293.93 200.58 283.37 235.43 242.07 205.04 232.03 182.65 300 211.52 300" style="fill: #2d2d2b;"/>
        <path d="m177.34,234.9c6.71,8.99,20.97,15.16,22.6,27.28,1.73,12.89-11.82,23.75-19.09,32.6-1.42,1.74-2.66,3.48-3.72,5.22h52.13c.65-1.03,1.33-2.05,1.91-3.09,7.72-13.62,11.15-35.12,7.07-50.53-5.67-21.42-27.4-35.45-35.17-55.67-1.67-4.34-7.58-18.67-4.53-23.43-3.98,6.23-23.2,23.66-23.2,23.66-5.3,4.81-5.45,20.73-4.62,27.26.75,5.87,3.05,11.92,6.61,16.7Z" style="fill: #1d0d00;"/>
      </g>
    </g>
  </g>
</svg>