<?xml version="1.0" encoding="UTF-8"?>
<svg xmlns="http://www.w3.org/2000/svg" viewBox="0 0 300 300">
  <g style="isolation: isolate;">
    <g id="Calque_4" data-name="Calque 4">
      <g>
        <polyline points="94.19 159.59 94.19 241.09 212.03 241.09 212.03 159.59" style="fill: #1d0d00;"/>
        <path d="m77.79,61.03s-35.46,200.91,37.47,194.25c0,0-14.75-47.35,5.12-66.63,0,0-10.77-7.79-21.39-21.12,0,0-6.86-9.49-9.9-19.35,0,0-8.15-83.89-11.29-87.16Z" style="fill: #1d1d1b;"/>
        <g>
          <path d="m203.33,115.05s8-11.29,14.6-6.52c0,0,3.98,4.05,1.31,14.22-.5,1.84-.88,3.7-1.23,5.57-.25,1.43-.49,2.94-.57,4.41-.08,1.52.37,3.15-.04,4.65-.85,3.11-2.36,6.45-5.09,8.31-1.18.8-2.51,1.39-3.94,1.5-.6.04-5.27-.45-5.26-1.13l.21-31.01Z" style="fill: #8b5c37;"/>
          <path d="m203.3,118.49s6.46-9.11,11.77-5.26c0,0,3.22,3.27,1.06,11.46-.38,1.48-.7,2.99-.98,4.49-.2,1.16-.4,2.38-.46,3.56-.07,1.23.29,2.54-.04,3.75-.68,2.51-1.89,5.19-4.09,6.69-.95.65-2.02,1.13-3.18,1.21-.48.04-4.25-.37-4.25-.91l.18-25.01Z" style="fill: #7f5332;"/>
        </g>
        <g>
          <path d="m92.98,116.12s-8-11.3-14.59-6.52c0,0-3.99,4.05-1.31,14.22.48,1.83.87,3.7,1.23,5.57.26,1.44.5,2.94.58,4.41.07,1.52-.37,3.15.04,4.65.85,3.11,2.36,6.44,5.1,8.3,1.17.8,2.5,1.4,3.92,1.51.6.04,5.28-.46,5.27-1.13l-.22-31.01Z" style="fill: #8b5c37;"/>
          <path d="m93.01,119.56s-6.46-9.12-11.76-5.26c0,0-3.23,3.26-1.07,11.46.39,1.48.71,2.99.98,4.49.21,1.16.4,2.38.46,3.56.08,1.22-.29,2.53.04,3.74.69,2.51,1.9,5.19,4.1,6.7.95.65,2.02,1.13,3.18,1.21.47.03,4.23-.37,4.23-.91l-.17-25.01Z" style="fill: #7f5332;"/>
        </g>
        <path d="m124.44,188.66s5.05,30.47-6.33,42.49h64.04s-13.07-24.27-5.81-45.16l-51.9,2.67Z" style="fill: #8b5c37;"/>
        <path d="m125.21,211.44c2.33,2.12,4.94,3.66,7.75,4.93,6.57,2.94,13.52,4.34,20.45,2.32,6.61-1.91,13.09-6.46,16.88-13.18,1.77-3.13,2.85-6.67,4.19-10.07.35-1.95,1.16-7.48,1.85-9.45l-51.9,2.67s1.49,12.89.77,22.77Z" style="fill: #654226;"/>
        <path d="m209.49,100.88c0-44.57-27.94-80.69-62.39-80.69s-62.39,36.12-62.39,80.69c0,21.54-1.19,39.72,9.47,58.71,9.47,16.87,20.92,25.43,37.72,37.67,0,0,16.26,12.53,33.34,1.89,15.41-13.68,34.09-26.74,41.2-47.65,5.35-15.74,3.04-34.12,3.04-50.63Z" style="fill: #8b5c37;"/>
        <g>
          <g>
            <path d="m163.21,114.19s1.5-.39,2.83.32c17.69,9.91,27.41-4.67,27.41-4.67-14.8-15.65-27.43,1.05-27.43,1.05l-2.81,3.29" style="fill: #fff;"/>
            <path d="m186.43,111.72c-.62,4.11-4.47,6.92-8.57,6.29-4.1-.64-6.91-4.48-6.27-8.58.62-4.1,4.46-6.91,8.56-6.28,4.1.63,6.92,4.48,6.28,8.57Z" style="fill: #210;"/>
            <path d="m185.16,111.53c-.53,3.39-3.7,5.72-7.1,5.2-3.4-.52-5.72-3.71-5.19-7.1.52-3.4,3.7-5.73,7.09-5.21,3.4.52,5.72,3.7,5.2,7.11Z" style="fill: #7e4e24;"/>
            <g style="mix-blend-mode: multiply;">
              <path d="m179.14,110.53l5.12-3.25c-.11-.18-.22-.36-.35-.51l-4.77,3.74s0,0,0,.02Z" style="fill: #d9d9d9;"/>
              <path d="m179.14,110.55l5.67-2.15c-.08-.19-.15-.39-.25-.58l-5.42,2.72h0Z" style="fill: #d9d9d9;"/>
              <path d="m179.11,110.5l4.37-4.21c-.14-.15-.29-.3-.46-.43l-3.93,4.64s0,0,.02,0Z" style="fill: #d9d9d9;"/>
              <path d="m179.14,110.58l6.08.3c0-.21,0-.42,0-.63l-6.07.33h0Z" style="fill: #d9d9d9;"/>
              <path d="m179.14,110.57l6.01-.95c-.04-.21-.07-.41-.13-.62l-5.88,1.55v.02Z" style="fill: #d9d9d9;"/>
              <path d="m179.13,110.62l5.45,2.69c.1-.19.18-.38.24-.58l-5.68-2.13s0,0,0,0Z" style="fill: #d9d9d9;"/>
              <path d="m179.11,110.63l4.79,3.75c.13-.16.25-.33.36-.52l-5.15-3.25s0,.01-.01.01Z" style="fill: #d9d9d9;"/>
              <path d="m179.07,110.47l2.37-5.59c-.19-.08-.4-.16-.58-.21l-1.79,5.79s0,.01.01.01Z" style="fill: #d9d9d9;"/>
              <path d="m179.09,110.48l3.45-4.99c-.17-.12-.35-.23-.53-.33l-2.92,5.31h0Z" style="fill: #d9d9d9;"/>
              <path d="m178.91,110.5l-4.39-4.2c-.15.15-.28.31-.41.47l4.79,3.74s.01,0,.01,0Z" style="fill: #d9d9d9;"/>
              <path d="m178.88,110.56l-6.01-.92c-.04.21-.05.42-.06.63l6.08.31s0,0,0-.01Z" style="fill: #d9d9d9;"/>
              <path d="m178.93,110.48l-3.45-4.99c-.18.11-.34.25-.5.37l3.94,4.63s.02-.01.02-.01Z" style="fill: #d9d9d9;"/>
              <path d="m178.9,110.51l-5.16-3.22c-.12.18-.21.36-.31.55l5.45,2.69s0-.01,0-.03Z" style="fill: #d9d9d9;"/>
              <path d="m179,110.45v-6.06c-.2,0-.42.01-.63.03l.61,6.04h.02Z" style="fill: #d9d9d9;"/>
              <path d="m178.98,110.45l-1.23-5.95c-.19.05-.4.09-.6.16l1.81,5.79h.02Z" style="fill: #d9d9d9;"/>
              <path d="m178.94,110.47l-2.38-5.59c-.2.08-.38.18-.57.28l2.93,5.31h.01Z" style="fill: #d9d9d9;"/>
              <path d="m178.89,110.54l-5.71-2.11c-.06.19-.13.39-.18.61l5.89,1.51h0Z" style="fill: #d9d9d9;"/>
              <path d="m178.89,110.58l-6.08.32c0,.21.04.42.06.63l6.01-.94s0,0,0,0Z" style="fill: #d9d9d9;"/>
              <path d="m178.97,110.69l-1.8,5.8c.19.06.39.11.59.15l1.22-5.95h0Z" style="fill: #d9d9d9;"/>
              <path d="m178.93,110.66l-3.95,4.62c.17.14.33.27.51.39l3.44-5h0Z" style="fill: #d9d9d9;"/>
              <path d="m178.94,110.67l-2.93,5.32c.18.11.36.2.56.28l2.38-5.59h0Z" style="fill: #d9d9d9;"/>
              <path d="m178.88,110.59l-5.88,1.55c.06.2.12.41.19.6l5.7-2.14s0-.01,0-.01Z" style="fill: #d9d9d9;"/>
              <path d="m178.91,110.64l-4.79,3.73c.12.17.26.33.41.48l4.38-4.21h0Z" style="fill: #d9d9d9;"/>
              <path d="m178.9,110.61l-5.45,2.7c.09.19.19.38.3.55l5.15-3.24h0Z" style="fill: #d9d9d9;"/>
              <path d="m179.11,110.64s0,.01,0,.01l3.93,4.64c.17-.14.33-.28.46-.43l-4.37-4.22Z" style="fill: #d9d9d9;"/>
              <path d="m179.03,110.45h.01l1.19-5.95c-.19-.05-.4-.07-.6-.09l-.6,6.04h0Z" style="fill: #d9d9d9;"/>
              <path d="m179.02,110.7h-.02l-.63,6.04c.21.02.43.03.63.03l.02-6.06Z" style="fill: #d9d9d9;"/>
              <path d="m179.03,110.69l.6,6.04c.21-.02.42-.05.61-.09l-1.19-5.96s-.02,0-.02,0Z" style="fill: #d9d9d9;"/>
              <path d="m179.07,110.68h-.01s1.79,5.81,1.79,5.81c.21-.06.39-.14.59-.21l-2.38-5.6Z" style="fill: #d9d9d9;"/>
              <path d="m179.09,110.67h0s2.93,5.33,2.93,5.33c.17-.1.35-.21.53-.33l-3.46-5Z" style="fill: #d9d9d9;"/>
              <path d="m185.15,111.49l-6.02-.89h0l5.88,1.53c.05-.21.09-.41.13-.61v-.04Z" style="fill: #d9d9d9;"/>
            </g>
            <path d="m181.84,110.92c-.24,1.5-1.62,2.53-3.13,2.3-1.5-.23-2.54-1.64-2.3-3.14.23-1.49,1.64-2.53,3.14-2.29,1.49.22,2.53,1.63,2.29,3.13Z" style="fill: #1d1d1b;"/>
            <path d="m182.84,109.75c-.1.7-.75,1.18-1.45,1.07-.7-.11-1.18-.76-1.08-1.46.11-.7.76-1.17,1.47-1.07.7.11,1.17.76,1.06,1.46Z" style="fill: #fff;"/>
            <path d="m163.21,114.19s8.91-10.14,17.3-10.13c0,0,6.77-.1,12.88,5.87,0,0,3.57-1.68,4.39-4.67,0,0-1.76,1.66-6.14.02,0,0-8.62-6.39-16.84-2.95,0,0-6.88,2.95-11.59,11.87Z" style="fill: #1d1d1b;"/>
            <path d="m193.38,109.93s-8.26,13.32-22.32,6.85c0,0,13.48,5.59,21.4-7.7l.92.86Z" style="fill: #1d1d1b;"/>
          </g>
          <path d="m165.87,107.89s.67-2.06,2.77-4.56c1.05-1.22,2.42-2.59,4.22-3.64.87-.56,1.88-.97,2.9-1.37,1.04-.37,2.12-.65,3.23-.8,2.23-.2,4.48-.01,6.45.57,1.97.45,3.74,1.42,5.04,2.41.64.49,1.29.86,1.71,1.39.44.48.82.9,1.13,1.25.6.71.95,1.11.95,1.11,0,0-.45-.29-1.23-.79-.38-.26-.84-.57-1.36-.92-.48-.39-1.2-.59-1.84-.98-.67-.39-1.41-.71-2.21-.96-.77-.33-1.76-.44-2.64-.66-1.82-.45-3.82-.5-5.74-.25-3.92.35-7.44,2.54-9.75,4.5-2.34,1.99-3.63,3.69-3.63,3.69Z" style="fill: #8b5c37;"/>
          <path d="m189.19,105.51s5.8-.29,6.81-4.93c0,0-2.59,5.05-7.27,3.88l.46,1.05Z" style="fill: #1d1d1b;"/>
          <path d="m191.52,106.64s5.8-.29,6.79-4.94c0,0-2.58,5.06-7.25,3.89l.46,1.05Z" style="fill: #1d1d1b;"/>
          <path d="m188.04,105.16s5.27-2.46,4.43-7.13c0,0-.48,5.65-5.25,6.34l.82.79Z" style="fill: #1d1d1b;"/>
          <path d="m186.34,104.14s4.51-2.12,3.81-6.13c0,0-.43,4.85-4.51,5.45l.71.69Z" style="fill: #1d1d1b;"/>
        </g>
        <g>
          <g>
            <path d="m133.34,114.19s-1.49-.39-2.82.32c-17.7,9.91-27.41-4.67-27.41-4.67,14.8-15.65,27.43,1.05,27.43,1.05l2.8,3.29" style="fill: #fff;"/>
            <path d="m110.1,111.72c.63,4.11,4.48,6.92,8.57,6.29,4.1-.64,6.92-4.48,6.29-8.58-.63-4.1-4.47-6.91-8.57-6.28-4.11.63-6.92,4.48-6.29,8.57Z" style="fill: #210;"/>
            <path d="m111.38,112.36c.53,3.39,3.7,5.72,7.11,5.2,3.38-.53,5.71-3.71,5.19-7.11-.53-3.4-3.71-5.72-7.11-5.2-3.39.53-5.72,3.71-5.19,7.11Z" style="fill: #7e4e24;"/>
            <g style="mix-blend-mode: multiply;">
              <path d="m117.41,110.53l-5.13-3.25c.11-.18.23-.36.36-.51l4.77,3.74s0,0,0,.02Z" style="fill: #d9d9d9;"/>
              <path d="m117.41,110.55l-5.69-2.15c.07-.19.16-.39.25-.58l5.44,2.72h0Z" style="fill: #d9d9d9;"/>
              <path d="m117.43,110.5l-4.37-4.21c.14-.15.3-.3.46-.43l3.93,4.64h0Z" style="fill: #d9d9d9;"/>
              <path d="m117.41,110.58l-6.08.3c-.01-.21-.01-.42,0-.63l6.08.33h0Z" style="fill: #d9d9d9;"/>
              <path d="m117.41,110.57l-6.01-.95c.03-.21.07-.41.13-.62l5.88,1.55v.02Z" style="fill: #d9d9d9;"/>
              <path d="m117.42,110.62l-5.45,2.69c-.1-.19-.18-.38-.25-.58l5.69-2.13s0,0,0,0Z" style="fill: #d9d9d9;"/>
              <path d="m117.43,110.63l-4.79,3.75c-.14-.16-.25-.33-.36-.52l5.14-3.25s0,.01,0,.01Z" style="fill: #d9d9d9;"/>
              <path d="m117.46,110.47l-2.36-5.59c.2-.08.39-.16.59-.21l1.79,5.79s-.01.01-.02.01Z" style="fill: #d9d9d9;"/>
              <path d="m117.45,110.48l-3.44-4.99c.17-.12.35-.23.54-.33l2.91,5.31s0,0,0,0Z" style="fill: #d9d9d9;"/>
              <path d="m117.63,110.5l4.39-4.2c.14.15.28.31.41.47l-4.79,3.74h-.01Z" style="fill: #d9d9d9;"/>
              <path d="m117.65,110.56l6.01-.92c.05.21.07.42.07.63l-6.08.31h0Z" style="fill: #d9d9d9;"/>
              <path d="m117.61,110.48l3.46-4.99c.17.11.33.25.49.37l-3.94,4.63s0-.01,0-.01Z" style="fill: #d9d9d9;"/>
              <path d="m117.64,110.51l5.15-3.22c.11.18.21.36.31.55l-5.46,2.69v-.03Z" style="fill: #d9d9d9;"/>
              <path d="m117.54,110.45v-6.06c.2,0,.42.01.62.03l-.61,6.04h0Z" style="fill: #d9d9d9;"/>
              <path d="m117.57,110.45l1.21-5.95c.2.05.41.09.6.16l-1.81,5.79h0Z" style="fill: #d9d9d9;"/>
              <path d="m117.59,110.47l2.38-5.59c.19.08.39.18.57.28l-2.93,5.31s0,0,0,0Z" style="fill: #d9d9d9;"/>
              <path d="m117.64,110.54l5.71-2.11c.06.19.13.39.18.61l-5.88,1.51s0,0,0,0Z" style="fill: #d9d9d9;"/>
              <path d="m117.65,110.58l6.08.32c0,.21-.05.42-.07.63l-6.01-.94h0Z" style="fill: #d9d9d9;"/>
              <path d="m117.58,110.69l1.79,5.8c-.19.06-.39.11-.6.15l-1.22-5.95h.02Z" style="fill: #d9d9d9;"/>
              <path d="m117.61,110.66l3.95,4.62c-.16.14-.33.27-.49.39l-3.46-5h0Z" style="fill: #d9d9d9;"/>
              <path d="m117.6,110.67l2.93,5.32c-.18.11-.37.2-.57.28l-2.38-5.59s.01,0,.02,0Z" style="fill: #d9d9d9;"/>
              <path d="m117.65,110.59l5.88,1.55c-.06.2-.11.41-.19.6l-5.7-2.14h0Z" style="fill: #d9d9d9;"/>
              <path d="m117.64,110.64l4.78,3.73c-.12.17-.27.33-.4.48l-4.39-4.21h.01Z" style="fill: #d9d9d9;"/>
              <path d="m117.64,110.61l5.45,2.7c-.09.19-.2.38-.32.55l-5.13-3.24h0Z" style="fill: #d9d9d9;"/>
              <path d="m117.44,110.64h0s-3.93,4.65-3.93,4.65c-.16-.14-.31-.28-.46-.43l4.39-4.22Z" style="fill: #d9d9d9;"/>
              <path d="m117.51,110.45h-.02l-1.19-5.95c.2-.05.4-.07.6-.09l.6,6.04h0Z" style="fill: #d9d9d9;"/>
              <path d="m117.52,110.7h.02l.62,6.04c-.21.02-.42.03-.62.03l-.02-6.06Z" style="fill: #d9d9d9;"/>
              <path d="m117.51,110.69l-.6,6.04c-.2-.02-.41-.05-.62-.09l1.21-5.96s0,0,.02,0Z" style="fill: #d9d9d9;"/>
              <path d="m117.47,110.68s.01,0,.01,0l-1.79,5.8c-.21-.06-.4-.14-.59-.21l2.38-5.6Z" style="fill: #d9d9d9;"/>
              <path d="m117.45,110.67s0,0,.02,0l-2.93,5.33c-.19-.1-.36-.21-.53-.33l3.45-5Z" style="fill: #d9d9d9;"/>
              <path d="m111.39,111.49l6.02-.89h0l-5.88,1.53c-.05-.21-.1-.41-.13-.61v-.04Z" style="fill: #d9d9d9;"/>
            </g>
            <path d="m114.7,110.92c.22,1.5,1.63,2.53,3.14,2.3,1.5-.23,2.53-1.64,2.3-3.14-.23-1.49-1.64-2.53-3.14-2.29-1.5.22-2.53,1.63-2.29,3.13Z" style="fill: #1d1d1b;"/>
            <path d="m113.69,109.75c.11.7.75,1.18,1.46,1.07.7-.11,1.17-.76,1.06-1.46-.1-.7-.75-1.17-1.45-1.07-.7.11-1.18.76-1.07,1.46Z" style="fill: #fff;"/>
            <path d="m133.34,114.19s-8.9-10.14-17.29-10.13c0,0-6.78-.1-12.89,5.87,0,0-3.57-1.68-4.39-4.67,0,0,1.77,1.66,6.15.02,0,0,8.62-6.39,16.84-2.95,0,0,6.87,2.95,11.59,11.87Z" style="fill: #1d1d1b;"/>
            <path d="m103.15,109.93s8.26,13.32,22.32,6.85c0,0-13.47,5.59-21.39-7.7l-.93.86Z" style="fill: #1d1d1b;"/>
          </g>
          <path d="m130.67,107.89s-1.3-1.7-3.64-3.69c-2.31-1.97-5.83-4.16-9.75-4.5-1.93-.25-3.93-.2-5.75.25-.87.22-1.87.33-2.64.66-.79.25-1.54.57-2.2.95-.65.39-1.37.59-1.85.99-.52.36-.98.67-1.35.92-.78.5-1.23.79-1.23.79,0,0,.34-.4.94-1.11.32-.35.7-.77,1.14-1.25.41-.53,1.06-.9,1.71-1.39,1.29-.99,3.05-1.95,5.03-2.41,1.97-.58,4.23-.78,6.45-.57,1.12.15,2.2.43,3.24.8,1.01.39,2.02.81,2.89,1.37,1.8,1.04,3.17,2.42,4.23,3.64,2.09,2.5,2.77,4.56,2.77,4.56Z" style="fill: #8b5c37;"/>
          <path d="m107.34,105.51s-5.8-.29-6.8-4.93c0,0,2.59,5.05,7.27,3.88l-.47,1.05Z" style="fill: #1d1d1b;"/>
          <path d="m105.02,106.64s-5.8-.29-6.8-4.94c0,0,2.59,5.06,7.25,3.89l-.46,1.05Z" style="fill: #1d1d1b;"/>
          <path d="m108.49,105.16s-5.27-2.46-4.43-7.13c0,0,.48,5.65,5.26,6.34l-.83.79Z" style="fill: #1d1d1b;"/>
          <path d="m110.2,104.14s-4.53-2.12-3.81-6.13c0,0,.42,4.85,4.53,5.45l-.72.69Z" style="fill: #1d1d1b;"/>
        </g>
        <g>
          <path d="m138.69,99.91c-.22-.68,3.22,20.22-.64,43.63,0,0-5.49,11.12,4.51,11.12,0,0-4.27-.9-2.25-8.18,0,0,6.11-22.49-1.62-46.57Z" style="fill: #724a2c;"/>
          <path d="m154.48,143.76s6.13,6.58,0,10c0,0,5,0,5.22-5,0,0-.46-5.45-5.22-4.99Z" style="fill: #724a2c;"/>
          <path d="m143.68,153.75s.69-.35,1.89-.12c.27.11.61.19.93.43.34.16.64.6.83.87.15.25.3.32.46.45.15.12.26.1.35.13.15-.08.3,0,.51-.21.2-.12.44-.21.64-.45.19-.21.42-.38.64-.55.19-.19.65-.51.92-.58.6-.24,1.11-.13,1.43-.08.33.06.49.12.49.12,0,0-.18.1-.45.23-.3.09-.65.35-.97.61-.17.18-.2.2-.35.48-.17.28-.34.59-.57.87-.41.58-1.09,1.23-2.25,1.38-.59-.03-1.14-.24-1.52-.58-.36-.29-.63-.76-.77-1.09-.16-.28-.11-.42-.28-.61-.09-.2-.3-.33-.46-.47-.75-.54-1.48-.82-1.48-.82Z" style="fill: #724a2c;"/>
        </g>
        <path d="m135.02,89.09s-21.88-7.27-30.16-7.27c0,0-7.15-.39-11.36,8.6,0,0,5.57-5.88,13.41-3.77l28.11,7.22s2.28-2.29,0-4.78Z" style="fill: #422918;"/>
        <path d="m160.07,89.09s21.87-7.27,30.16-7.27c0,0,7.14-.39,11.35,8.6,0,0-5.58-5.88-13.41-3.77l-28.1,7.22s-2.3-2.29,0-4.78Z" style="fill: #422918;"/>
        <g>
          <g>
            <path d="m157.85,166.1c-5.81-2.85-8.64,0-8.64,0,0,0-2.83-2.85-8.65,0,0,0-8.46,3.82-12.23,3.57,2.88.35,17.57,2.01,20.89,1.35,3.29.66,16.86-1.04,19.74-1.37-3.78.24-11.1-3.55-11.1-3.55Z" style="fill: #724a2c;"/>
            <path d="m128.32,169.66s9.18,9.93,20.89,9.71c0,0,12.64-.45,19.74-9.73l-39.21.02h-1.41Z" style="fill: #724a2c;"/>
          </g>
          <path d="m131.56,170.67c2.97.21,5.94.37,8.91.32,1.47-.05,2.95-.05,4.41-.24.71-.11,1.46-.15,2.16-.32l2.08-.56.15-.04.11.02c2.65.58,5.38.89,8.1,1.15,1.38.06,2.74.17,4.11.1,1.38.06,2.73-.15,4.12-.27-1.35.26-2.7.62-4.1.7-1.37.17-2.77.13-4.15.15-2.78-.08-5.53-.43-8.27-.95l.25-.02-2.22.57c-.75.17-1.51.2-2.27.3-.75.11-1.49.11-2.25.13-.75,0-1.5.07-2.25,0-3-.08-5.97-.47-8.9-1.04Z" style="fill: #593a20;"/>
          <path d="m161.88,172.91c-4.55.82-9.26,1.47-13.9,1.26-2.48-.11-4.95-.37-7.43-.65-1.86-.22-3.72-.37-5.5-1.04-1.79-.68-3.79-1.36-5.33-2.52-.17-.13-.34-.23-.52-.36-.26.03-.53.06-.75.04,0,0,9.19,9.93,20.9,9.7,0,0,12.01-.45,19.19-9.07-.11.02-.21.05-.28.06-1.75,1.49-4.12,2.18-6.37,2.58Z" style="fill: #8b5c37;"/>
          <path d="m167.79,169.57c-7.19,8.44-19.03,8.88-19.03,8.88-9.55.19-17.4-6.38-19.98-8.8-.11,0-.24.02-.34,0,0,0,9.19,9.93,20.9,9.71,1.74-.06,10.9,1.83,19.73-9.73-.39.02-.82-.02-1.27-.07Z" style="fill: #603f23;"/>
          <path d="m129.1,170.29c3.99-.13,11.58-3.55,11.58-3.55,5.82-2.85,8.66,0,8.66,0-1.49,1.5,4.31-2.12,8.64,0,0,0,6.66,3.43,10.55,3.52.17-.22.36-.42.54-.65-3.76.25-11.09-3.55-11.09-3.55-5.81-2.84-8.64,0-8.64,0,0,0-2.83-2.84-8.66,0,0,0-8.46,3.83-12.24,3.57,0,0,.25.26.66.65Z" style="fill: #603f23;"/>
          <path d="m163.65,171.73s-7.68,4-17.79,2.32c0,0-1.32.92,0,1.54,0,0,10.18,1.58,17.79-3.87Z" style="fill: #fff;"/>
        </g>
        <path d="m248.12,244.85l-71.84-19.4-26.04-1.83v-.02h-.1s-.09,0-.09,0v.02l-26.04,1.83-71.83,19.4s-28.05,14.01-25.03,54.8h246.01c3.01-40.79-25.03-54.8-25.03-54.8Z" style="fill: #8b5c37;"/>
        <path d="m112.28,53.14s-18.85,13.74-27.6,56.05c0,0-3.51-2.46-6.94,1.32,0,0-15.85-84.68,40.1-93.97l-5.56,36.6Z" style="fill: #1d1d1b;"/>
        <g>
          <path d="m92.66,146.5c0,2.51-2.03,4.54-4.55,4.54s-4.54-2.03-4.54-4.54,2.03-4.55,4.54-4.55,4.55,2.04,4.55,4.55Z" style="fill: #fff;"/>
          <path d="m88.11,141.95c-.44,0-.87.08-1.27.2,1.26.72,2.23,1.9,2.48,3.39.3,1.7-.38,3.62-2.29,3.98-.84.15-1.64.1-2.37-.11.84.99,2.07,1.63,3.45,1.63,2.52,0,4.55-2.03,4.55-4.54s-2.03-4.55-4.55-4.55Z" style="fill: #d9d9d9;"/>
        </g>
        <path d="m227.06,300c.12-1.27.19-2.01.19-2.01,0,0-11.07-15.76-.08-59.23l-14.51-3.92s-7.46,40.64-41.45,65.16h55.85Z" style="fill: #d32a26;"/>
        <path d="m73.72,300h55.84c-34-24.52-41.45-65.16-41.45-65.16l-14.52,3.92c11,43.47-.07,59.23-.07,59.23,0,0,.07.74.19,2.01Z" style="fill: #d32a26;"/>
        <path d="m198.8,20.85c-.16-.22-.32-.45-.48-.66,0,0-2.79-3.39-8.09-7.25h0c-10.5-7.66-30.82-17.16-58.66-5.68,0,0-23.64,9.86-23.75,30.96-.22,39.59,90.5,58.24,90.5,58.24l3.2,3.89.06.42s12.24,126.67-16.34,154.36c0,0,40.79,3.75,49.06-23.88,0,0,27.08-145.57-35.5-210.39Z" style="fill: #1d1d1b;"/>
        <path d="m111.27,210.18h-37.68c5.76,27.58,18,47.27,41.66,45.1,0,0-8.36-24.69-3.98-45.1Z" style="fill: #1d1d1b;"/>
      </g>
    </g>
  </g>
</svg>